<svg width="21" height="44" viewBox="0 0 21 44" fill="none" xmlns="http://www.w3.org/2000/svg">
<path fill-rule="evenodd" clip-rule="evenodd" d="M14.71 44C13.8012 43.9996 12.9035 43.8008 12.0796 43.4173C11.2557 43.0339 10.5255 42.4751 9.94 41.78C11.21 40.8003 12.8102 40.3509 14.4045 40.5262C15.9988 40.7015 17.4632 41.4878 18.49 42.72C17.4024 43.553 16.0699 44.0031 14.7 44M17.45 36.75C17.4484 35.3834 17.8984 34.0545 18.73 32.97C19.9573 33.9997 20.7407 35.4625 20.9176 37.0547C21.0945 38.6469 20.6513 40.2461 19.68 41.52C18.9831 40.9355 18.4224 40.2057 18.0372 39.3817C17.652 38.5578 17.4516 37.6596 17.45 36.75ZM8.17 38.49C7.28966 38.2548 6.47163 37.8293 5.77359 37.2436C5.07556 36.6579 4.51451 35.9261 4.13 35.1C5.61128 34.4898 7.2709 34.4746 8.76307 35.0577C10.2552 35.6408 11.4649 36.7771 12.14 38.23C10.92 38.73 9.54 38.85 8.17 38.49ZM12.7 32.19C13.0536 30.8741 13.8301 29.711 14.91 28.88C15.8271 30.1924 16.2036 31.8076 15.9616 33.3902C15.7195 34.9729 14.8774 36.4017 13.61 37.38C13.0883 36.6339 12.7365 35.7826 12.5793 34.8859C12.4221 33.9893 12.4633 33.069 12.7 32.19ZM2.27 31.07C1.56837 30.4915 1.00166 29.7666 0.609547 28.9461C0.217436 28.1256 0.00939884 27.2293 0 26.32C1.60343 26.3742 3.12366 27.0469 4.24214 28.1971C5.36063 29.3473 5.99058 30.8857 6 32.49C4.63429 32.44 3.32321 31.9409 2.27 31.07ZM9 27.23C9.9 26.13 11.11 25.43 12.4 25.13C12.6911 26.7069 12.3629 28.3354 11.4837 29.6764C10.6046 31.0175 9.24216 31.968 7.68 32.33C7.51414 31.4351 7.54636 30.5147 7.77441 29.6336C8.00247 28.7525 8.4208 27.9321 9 27.23ZM1.2 22.3C0.671932 21.5588 0.312375 20.7111 0.14654 19.8163C-0.0192959 18.9215 0.012603 18.0012 0.24 17.12C1.77442 17.5871 3.06861 18.6298 3.85151 20.0297C4.6344 21.4296 4.84529 23.0781 4.44 24.63C3.13306 24.231 1.99423 23.412 1.2 22.3ZM8.7 20.33C9.8122 19.537 11.1548 19.1328 12.52 19.18C12.3899 20.7757 11.6504 22.2601 10.455 23.3251C9.25962 24.3902 7.7001 24.9541 6.1 24.9C6.17331 23.9932 6.44401 23.1134 6.89314 22.3223C7.34227 21.5311 7.95896 20.8477 8.7 20.32M2.12 13.4C1.85277 12.5294 1.77965 11.6109 1.90577 10.709C2.0319 9.80712 2.35421 8.94386 2.85 8.18C4.15566 9.10975 5.05126 10.5083 5.34946 12.0832C5.64766 13.6581 5.32537 15.2873 4.45 16.63C3.34031 15.8378 2.52166 14.7029 2.12 13.4ZM9.86 13.9C11.164 13.5028 12.5623 13.545 13.84 14.02C13.2126 15.4935 12.0419 16.6688 10.5708 17.3019C9.09977 17.935 7.44141 17.9773 5.94 17.42C6.29836 16.5848 6.83484 15.8379 7.51194 15.2316C8.18904 14.6253 8.99041 14.1743 9.86 13.91M5.92 6.29C5.69 4.39 6.34 2.59 7.55 1.29C8.67111 2.43466 9.30727 3.96781 9.3259 5.56993C9.34453 7.17206 8.74419 8.71958 7.65 9.89C6.69263 8.91325 6.0845 7.64777 5.92 6.29ZM13.45 8.15C14.8048 7.9882 16.1751 8.27633 17.35 8.97C16.4719 10.31 15.112 11.2609 13.552 11.6258C11.9919 11.9907 10.3514 11.7415 8.97 10.93C9.46859 10.1677 10.128 9.52386 10.902 9.04359C11.6759 8.56333 12.5456 8.25833 13.45 8.15ZM14.42 1.34C15.4886 0.49313 16.8067 0.0221596 18.17 0C18.1213 1.60199 17.4571 3.1236 16.3155 4.24849C15.1738 5.37338 13.6425 6.01501 12.04 6.04C12.0693 5.13029 12.2976 4.23805 12.7088 3.42605C13.1199 2.61404 13.7041 1.902 14.42 1.34Z" fill="#8E8E93"/>
</svg>
