<svg width="23" height="23" viewBox="0 0 23 23" fill="none" xmlns="http://www.w3.org/2000/svg">
<path d="M11.5 22.9522C9.22552 22.9522 7.00211 22.2791 5.11095 21.0181C3.21978 19.7571 1.7458 17.9648 0.875391 15.8678C0.00498283 13.7708 -0.222756 11.4634 0.220974 9.23722C0.664704 7.01108 1.75997 4.96624 3.36828 3.36127C4.97658 1.75631 7.02568 0.663323 9.25647 0.220515C11.4872 -0.222292 13.7995 0.00497246 15.9009 0.873571C18.0022 1.74217 19.7983 3.21309 21.0619 5.10032C22.3255 6.98756 23 9.20634 23 11.4761C23 14.5197 21.7884 17.4387 19.6317 19.5909C17.4751 21.7431 14.55 22.9522 11.5 22.9522ZM17.051 6.26795L9.75101 13.7264L7.76601 11.4891C7.58954 11.3126 7.35459 11.2064 7.10526 11.1904C6.85592 11.1745 6.60932 11.2499 6.41173 11.4025C6.21414 11.5551 6.07914 11.7744 6.03206 12.0193C5.98497 12.2641 6.02905 12.5177 6.15601 12.7325L8.509 16.7102C8.62249 16.885 8.77802 17.0288 8.96141 17.1283C9.14481 17.2278 9.35025 17.2799 9.559 17.2799C9.76776 17.2799 9.9732 17.2278 10.1566 17.1283C10.34 17.0288 10.4955 16.885 10.609 16.7102C10.981 16.2112 18.037 7.38662 18.037 7.38662C18.908 6.39269 17.794 5.5225 17.051 6.26795Z" fill="#00C73C"/>
</svg>
