<svg width="153" height="28" viewBox="0 0 153 28" fill="none" xmlns="http://www.w3.org/2000/svg">
<rect opacity="0.45" x="84.5195" y="2.54541" width="1.31101" height="23.5981" transform="rotate(15 84.5195 2.54541)" fill="url(#paint0_linear_817_5472)"/>
<path opacity="0.56" d="M97.01 8.69168H95.884L95.3501 11.7824H93.3242L94.8173 3.0271L97.863 3.03311C98.8385 3.03311 99.5884 3.26563 100.114 3.73066C100.643 4.19168 100.881 4.82307 100.825 5.62486C100.781 6.25826 100.602 6.78342 100.286 7.20034C99.9694 7.61326 99.5277 7.93999 98.9587 8.18052L100.12 11.6802V11.7824H97.9576L97.01 8.69168ZM96.1558 7.06204L97.3412 7.07406C97.6652 7.07406 97.9455 6.99389 98.1821 6.83353C98.4236 6.67318 98.5959 6.45469 98.6978 6.17809C98.8009 5.89746 98.83 5.62686 98.7864 5.36629C98.7075 4.9213 98.4272 4.68678 97.9455 4.66273L96.5707 4.65671L96.1558 7.06204Z" fill="#333333"/>
<path opacity="0.56" d="M104.172 11.9031C103.599 11.899 103.088 11.7628 102.637 11.4942C102.192 11.2215 101.853 10.8447 101.624 10.3637C101.396 9.87855 101.305 9.34543 101.352 8.76414L101.37 8.59574C101.476 7.52537 101.842 6.6795 102.466 6.05812C103.093 5.43273 103.862 5.13207 104.77 5.15612C105.32 5.16414 105.789 5.30645 106.18 5.58307C106.572 5.85567 106.858 6.23451 107.039 6.71958C107.221 7.20064 107.281 7.74185 107.217 8.34318L107.105 9.16698H103.29C103.297 9.50774 103.392 9.78434 103.574 9.9969C103.756 10.2093 104.02 10.3215 104.367 10.3336C104.933 10.3496 105.44 10.1292 105.89 9.67215L106.708 10.7725C106.466 11.1213 106.129 11.3959 105.695 11.5964C105.264 11.7928 104.792 11.8951 104.279 11.9031H104.172ZM104.646 6.71357C104.37 6.70556 104.128 6.79375 103.923 6.97816C103.722 7.16256 103.546 7.47125 103.395 7.9042H105.345L105.38 7.72982C105.405 7.58951 105.408 7.45722 105.393 7.33295C105.326 6.93205 105.077 6.72559 104.646 6.71357Z" fill="#333333"/>
<path opacity="0.56" d="M107.789 8.51674C107.863 7.86329 108.039 7.27198 108.315 6.74281C108.596 6.21363 108.945 5.81475 109.364 5.54615C109.782 5.27356 110.257 5.14125 110.786 5.14927C111.43 5.16532 111.915 5.39982 112.243 5.85283L112.45 5.26954L114.252 5.27555L113.204 11.5294C113.085 12.4113 112.704 13.1069 112.06 13.616C111.417 14.1251 110.615 14.3678 109.655 14.3436C109.228 14.3356 108.815 14.2494 108.416 14.0851C108.017 13.9207 107.676 13.6722 107.391 13.3394L108.315 12.1728C108.659 12.6138 109.105 12.8403 109.655 12.8524C110.52 12.8684 111.068 12.4014 111.301 11.4512L111.349 11.2528C110.907 11.6937 110.419 11.9102 109.885 11.9022C109.475 11.8982 109.114 11.794 108.802 11.5895C108.489 11.3811 108.245 11.0824 108.066 10.6936C107.889 10.3047 107.789 9.87169 107.764 9.39472C107.749 9.1542 107.757 8.86147 107.789 8.51674ZM109.714 9.16011C109.714 9.52896 109.779 9.81565 109.91 10.0201C110.039 10.2245 110.229 10.3308 110.477 10.3388C110.845 10.3548 111.179 10.2105 111.48 9.9058L111.983 7.1457C111.824 6.86507 111.56 6.72076 111.189 6.71274C110.81 6.70473 110.492 6.86909 110.235 7.20584C109.979 7.53857 109.816 7.97754 109.749 8.52275C109.725 8.77526 109.714 8.98782 109.714 9.16011Z" fill="#333333"/>
<path opacity="0.56" d="M116.338 11.7817H114.383L115.497 5.27539H117.451L116.338 11.7817ZM115.669 3.63376C115.66 3.34111 115.761 3.09657 115.971 2.90012C116.183 2.7037 116.441 2.60547 116.74 2.60547C117.045 2.60547 117.297 2.69367 117.499 2.87006C117.705 3.04645 117.811 3.27696 117.819 3.56159C117.826 3.85825 117.726 4.10479 117.517 4.30124C117.307 4.49366 117.051 4.58987 116.746 4.58987C116.45 4.58987 116.198 4.50369 115.988 4.3313C115.783 4.1549 115.676 3.92239 115.669 3.63376Z" fill="#333333"/>
<path opacity="0.56" d="M121.191 9.91761C121.243 9.65295 121.042 9.45455 120.587 9.32229L120.167 9.21403C119.479 9.02955 118.976 8.77105 118.655 8.43829C118.336 8.10556 118.186 7.71068 118.205 7.25367C118.226 6.62829 118.497 6.12116 119.023 5.7323C119.552 5.33943 120.196 5.14701 120.955 5.15503C121.709 5.16304 122.32 5.35748 122.786 5.73831C123.255 6.11915 123.494 6.63229 123.503 7.27773L121.559 7.27172C121.575 6.75857 121.351 6.50201 120.889 6.50201C120.692 6.50201 120.508 6.56215 120.338 6.6824C120.168 6.79866 120.068 6.95502 120.036 7.15144C119.969 7.47616 120.252 7.69866 120.883 7.81892C121.433 7.95121 121.857 8.10556 122.157 8.28195C122.458 8.45433 122.686 8.66884 122.845 8.92536C123.003 9.18189 123.076 9.49063 123.063 9.85147C123.052 10.2443 122.925 10.5951 122.685 10.9038C122.443 11.2124 122.094 11.459 121.636 11.6433C121.181 11.8278 120.688 11.914 120.155 11.902C119.693 11.8979 119.262 11.7998 118.863 11.6073C118.468 11.4149 118.158 11.1543 117.933 10.8256C117.711 10.4929 117.597 10.1121 117.59 9.683L119.403 9.69507C119.41 10.2724 119.695 10.557 120.256 10.549C120.496 10.549 120.702 10.4948 120.872 10.3866C121.042 10.2744 121.147 10.118 121.191 9.91761Z" fill="#333333"/>
<path opacity="0.56" d="M127.322 3.65894L127.044 5.27651H128.068L127.825 6.68363H126.8L126.302 9.67228C126.274 9.87671 126.287 10.031 126.338 10.1353C126.393 10.2395 126.528 10.2957 126.742 10.3037C126.824 10.3076 126.994 10.2976 127.25 10.2736L127.108 11.7409C126.78 11.8491 126.431 11.8991 126.06 11.8911C125.455 11.8831 125.003 11.7027 124.703 11.35C124.402 10.9972 124.281 10.5181 124.336 9.9128L124.857 6.68363H124.062L124.3 5.27651H125.094L125.373 3.65894H127.322Z" fill="#333333"/>
<path opacity="0.56" d="M130.957 11.9031C130.384 11.899 129.873 11.7628 129.423 11.4942C128.977 11.2215 128.638 10.8447 128.41 10.3637C128.181 9.87855 128.09 9.34543 128.137 8.76414L128.155 8.59574C128.262 7.52537 128.627 6.6795 129.251 6.05812C129.88 5.43273 130.648 5.13207 131.555 5.15612C132.105 5.16414 132.574 5.30645 132.965 5.58307C133.357 5.85567 133.643 6.23451 133.824 6.71958C134.006 7.20064 134.066 7.74185 134.003 8.34318L133.89 9.16698H130.075C130.082 9.50774 130.177 9.78434 130.359 9.9969C130.541 10.2093 130.805 10.3215 131.152 10.3336C131.718 10.3496 132.225 10.1292 132.675 9.67215L133.493 10.7725C133.252 11.1213 132.914 11.3959 132.48 11.5964C132.049 11.7928 131.577 11.8951 131.064 11.9031H130.957ZM131.431 6.71357C131.155 6.70556 130.913 6.79375 130.708 6.97816C130.507 7.16256 130.331 7.47125 130.182 7.9042H132.13L132.166 7.72982C132.19 7.58951 132.193 7.45722 132.178 7.33295C132.111 6.93205 131.862 6.72559 131.431 6.71357Z" fill="#333333"/>
<path opacity="0.56" d="M138.866 7.11006C138.656 7.07799 138.454 7.05794 138.261 7.04993C137.677 7.03389 137.23 7.23835 136.922 7.66329L136.199 11.7824H134.25L135.364 5.276L137.183 5.26999L137.035 6.12388C137.453 5.46643 137.947 5.1377 138.516 5.1377C138.678 5.1377 138.879 5.16576 139.121 5.22188L138.866 7.11006Z" fill="#333333"/>
<path opacity="0.56" d="M141.836 11.9031C141.263 11.899 140.751 11.7628 140.301 11.4942C139.856 11.2215 139.517 10.8447 139.288 10.3637C139.06 9.87855 138.969 9.34543 139.016 8.76414L139.033 8.59574C139.14 7.52537 139.505 6.6795 140.13 6.05812C140.757 5.43273 141.525 5.13207 142.434 5.15612C142.984 5.16414 143.453 5.30645 143.844 5.58307C144.236 5.85567 144.522 6.23451 144.703 6.71958C144.885 7.20064 144.945 7.74185 144.881 8.34318L144.769 9.16698H140.953C140.961 9.50774 141.056 9.78434 141.238 9.9969C141.42 10.2093 141.684 10.3215 142.031 10.3336C142.597 10.3496 143.104 10.1292 143.554 9.67215L144.372 10.7725C144.13 11.1213 143.793 11.3959 143.359 11.5964C142.928 11.7928 142.456 11.8951 141.943 11.9031H141.836ZM142.31 6.71357C142.034 6.70556 141.792 6.79375 141.587 6.97816C141.386 7.16256 141.21 7.47125 141.059 7.9042H143.009L143.044 7.72982C143.069 7.58951 143.072 7.45722 143.057 7.33295C142.99 6.93205 142.74 6.72559 142.31 6.71357Z" fill="#333333"/>
<path opacity="0.56" d="M145.443 8.51664C145.565 7.49037 145.874 6.66854 146.366 6.05118C146.86 5.4338 147.504 5.13514 148.298 5.15519C148.844 5.17123 149.295 5.40374 149.655 5.85273L150.277 2.54541H152.232L150.657 11.7818H148.92L149.003 11.0784C148.525 11.6476 147.995 11.9242 147.41 11.9082C146.793 11.9002 146.309 11.6696 145.959 11.2167C145.61 10.7596 145.425 10.1482 145.402 9.38255C145.393 9.12996 145.402 8.88341 145.425 8.64289L145.443 8.51664ZM147.386 8.64893C147.354 8.90546 147.341 9.12996 147.344 9.32245C147.344 9.98785 147.565 10.3266 148.008 10.3387C148.391 10.3507 148.732 10.1643 149.033 9.77947L149.471 7.2839C149.342 6.91508 149.081 6.72467 148.69 6.71265C148.326 6.70463 148.032 6.86497 147.807 7.1937C147.586 7.51842 147.445 8.0035 147.386 8.64893Z" fill="#333333"/>
<path opacity="0.56" d="M89.4766 26.6949L90.9695 17.9395L93.7127 17.9455C94.7953 17.9496 95.6022 18.1581 96.1361 18.5709C96.6687 18.9838 96.9114 19.5631 96.8641 20.3088C96.8058 21.2309 96.3072 21.8843 95.3716 22.2692C95.7077 22.3894 95.9674 22.6078 96.153 22.9246C96.3435 23.2373 96.4236 23.6141 96.3969 24.0551C96.3411 24.9009 96.0111 25.5524 95.4068 26.0094C94.8062 26.4665 93.9833 26.6949 92.9365 26.6949H89.4766ZM92.1426 22.9727L91.7813 25.0714L92.9958 25.0773C93.375 25.0773 93.691 24.9831 93.9437 24.7948C94.1971 24.6023 94.3463 24.3477 94.3937 24.031C94.5041 23.3615 94.2517 23.0108 93.6357 22.9787L92.1426 22.9727ZM92.3737 21.5896L93.3276 21.5956C94.208 21.5756 94.7018 21.2328 94.8086 20.5673C94.9033 19.9099 94.5684 19.5791 93.8015 19.5752L92.7232 19.5692L92.3737 21.5896Z" fill="#333333"/>
<path opacity="0.56" d="M101.669 22.0227C101.46 21.9906 101.259 21.9706 101.065 21.9625C100.481 21.9465 100.035 22.1509 99.7265 22.5759L99.0034 26.695H97.0547L98.1686 20.1886L99.9874 20.1826L99.8394 21.0365C100.258 20.379 100.752 20.0503 101.32 20.0503C101.482 20.0503 101.684 20.0784 101.924 20.1345L101.669 22.0227Z" fill="#333333"/>
<path opacity="0.56" d="M105.091 20.0698C105.664 20.0778 106.159 20.2241 106.578 20.5087C106.996 20.7894 107.303 21.1822 107.496 21.6873C107.694 22.1924 107.764 22.7537 107.71 23.371L107.698 23.5033C107.587 24.5016 107.222 25.3074 106.602 25.9207C105.982 26.5341 105.215 26.8327 104.303 26.8167C103.734 26.8087 103.242 26.6663 102.827 26.3897C102.413 26.1091 102.105 25.7183 101.904 25.2171C101.706 24.716 101.634 24.1588 101.69 23.5454C101.789 22.479 102.149 21.6291 102.769 20.9958C103.393 20.3624 104.167 20.0537 105.091 20.0698ZM103.639 23.5454L103.622 23.9002C103.566 24.7942 103.835 25.2492 104.428 25.2652C105.193 25.2892 105.639 24.6578 105.76 23.371L105.784 22.8239C105.791 22.463 105.725 22.1764 105.583 21.9639C105.444 21.7475 105.239 21.6352 104.966 21.6272C104.607 21.6151 104.311 21.7655 104.078 22.0782C103.849 22.3869 103.702 22.8759 103.639 23.5454Z" fill="#333333"/>
<path opacity="0.56" d="M110.998 24.2956L110.287 24.921L109.985 26.6949H108.035L109.617 17.4524H111.567L110.666 22.3833L110.904 22.0948L112.675 20.1885H115.146L112.42 22.9546L114.073 26.6949H111.934L110.998 24.2956Z" fill="#333333"/>
<path opacity="0.56" d="M117.595 26.8154C117.022 26.8113 116.51 26.675 116.06 26.4064C115.614 26.1339 115.276 25.757 115.047 25.276C114.818 24.7909 114.727 24.2578 114.774 23.6764L114.792 23.508C114.899 22.4377 115.264 21.5918 115.888 20.9705C116.516 20.3451 117.284 20.0443 118.193 20.0685C118.742 20.0765 119.212 20.2187 119.603 20.4953C119.994 20.768 120.28 21.1468 120.462 21.6319C120.644 22.1129 120.702 22.6542 120.639 23.2556L120.528 24.0793H116.712C116.719 24.4201 116.815 24.6967 116.996 24.9091C117.178 25.1217 117.442 25.2339 117.79 25.246C118.355 25.262 118.862 25.0414 119.313 24.5845L120.13 25.6849C119.889 26.0336 119.551 26.3083 119.117 26.5088C118.687 26.7052 118.215 26.8074 117.701 26.8154H117.595ZM118.068 21.6259C117.792 21.6179 117.551 21.706 117.345 21.8905C117.144 22.0749 116.969 22.3835 116.818 22.8165H118.767L118.803 22.6421C118.827 22.5019 118.83 22.3696 118.814 22.2452C118.748 21.8443 118.499 21.6379 118.068 21.6259Z" fill="#333333"/>
<path opacity="0.56" d="M125.502 22.0227C125.294 21.9906 125.092 21.9706 124.898 21.9625C124.313 21.9465 123.867 22.1509 123.56 22.5759L122.837 26.695H120.887L122.001 20.1886L123.819 20.1826L123.671 21.0365C124.09 20.379 124.584 20.0503 125.153 20.0503C125.314 20.0503 125.516 20.0784 125.757 20.1345L125.502 22.0227Z" fill="#333333"/>
<path fill-rule="evenodd" clip-rule="evenodd" d="M74.3377 13.9867C70.6104 21.7127 54.115 28 37.6195 28C21.1241 28 10.7087 21.7127 14.436 13.9867C18.1369 6.28734 34.6588 0 51.1542 0C67.6497 0 78.0651 6.28734 74.3377 13.9867Z" fill="#151317"/>
<path fill-rule="evenodd" clip-rule="evenodd" d="M50.5204 0.692383C66.3549 0.692383 76.3473 6.58011 72.7786 13.7733C69.2099 20.993 53.3753 26.8808 37.5672 26.8808C21.7326 26.8808 11.7402 20.993 15.3089 13.7733C18.8777 6.58011 34.7122 0.692383 50.5204 0.692383Z" fill="#647387"/>
<path fill-rule="evenodd" clip-rule="evenodd" d="M48.014 1.91772C62.3153 1.91772 71.3296 7.1927 68.0781 13.6399C64.8266 20.0871 50.5253 25.3621 36.224 25.3621C21.9226 25.3621 12.9083 20.0871 16.1598 13.6399C18.2746 9.48385 24.9362 5.83399 33.2104 3.75597C33.7919 3.59613 34.3999 3.46292 35.0079 3.32971C39.1318 2.42391 43.5729 1.91772 48.014 1.91772Z" fill="#151317"/>
<path fill-rule="evenodd" clip-rule="evenodd" d="M66.7244 8.36571C67.4382 9.53792 67.5704 10.87 67.0152 12.2553C66.4865 13.2943 65.8785 14.1469 64.9797 14.9727C60.3007 19.262 49.7532 22.459 39.2585 22.459C26.8605 22.459 19.0621 18.0099 21.8642 12.5484C23.794 8.79197 30.3763 5.38188 38.2539 3.67684C39.1792 3.49035 40.1308 3.3305 41.0825 3.17065C39.232 3.35714 37.408 3.62356 35.6369 3.99653C26.9133 5.91471 19.5115 9.0051 17.3439 13.2943C14.2245 19.5284 22.8688 24.5903 36.615 24.5903C47.8763 24.5903 59.164 21.1802 64.5832 16.5179C65.1912 15.9851 65.9049 15.2658 66.4865 14.4666C66.7244 14.1469 66.9095 13.8272 67.0945 13.5075C68.0726 11.6692 67.8876 9.88426 66.7244 8.36571Z" fill="#1254FF"/>
<path fill-rule="evenodd" clip-rule="evenodd" d="M9.07208 12.6811C8.80773 13.0807 8.56982 13.3738 8.30547 13.5603C8.01468 13.8 7.64459 13.9066 7.1952 13.9066C6.90441 13.9066 6.69293 13.8533 6.64006 13.7468C6.64006 13.7201 6.50789 13.3738 6.90441 12.0417C7.16876 11.1892 7.48598 10.6031 7.85607 10.2567C8.30547 9.80384 8.75486 9.61735 9.33643 9.61735C9.52148 9.61735 9.65365 9.64399 9.75939 9.69728C9.8387 9.72392 9.89157 9.7772 9.89157 10.017L9.97087 10.9761H14.5177C14.2269 11.349 13.989 11.7753 13.8039 12.2016H9.3893L9.07208 12.6811ZM20.0955 12.9742C19.9369 13.507 19.6989 13.9066 19.461 14.1197C19.2231 14.3329 19.0116 14.4128 18.7737 14.4128C18.7209 14.4128 18.6944 14.4128 18.6944 14.4128C18.6944 14.3595 18.668 14.1464 18.8266 13.6402C18.9588 13.134 19.1967 12.761 19.4346 12.5479C19.6725 12.3614 19.884 12.2815 20.1483 12.2815C20.1748 12.2815 20.2012 12.2815 20.2276 12.2815C20.2012 12.3348 20.2276 12.5479 20.0955 12.9742ZM30.9603 12.9475C30.8281 13.4271 30.643 13.7734 30.4316 13.9599C30.2729 14.0931 30.1408 14.173 30.0086 14.173H29.9822C29.9822 14.0931 30.0086 13.9332 30.0879 13.6402C30.2729 13.0274 30.4844 12.761 30.643 12.6545C30.8016 12.5213 30.9603 12.4413 31.0924 12.4147C31.066 12.5213 31.0396 12.6811 30.9603 12.9475ZM62.8937 8.17872L64.1097 4.28909L57.924 6.8733L57.7653 6.92658L57.3952 8.15208H56.1792L56.1264 8.31193C55.5977 8.07216 55.0954 7.96559 54.5667 7.96559C54.1437 7.96559 53.7472 8.01887 53.3771 8.15208H48.5131L47.5614 11.1359C47.5614 11.0027 47.5614 10.8961 47.5614 10.7629C47.5086 10.1235 47.2971 9.56407 46.927 9.16445C46.4776 8.63162 45.8432 8.31193 45.0237 8.17872C44.4157 8.07216 43.6226 7.99223 42.4859 7.99223C41.825 7.99223 41.1906 8.04552 40.5562 8.12544C39.8424 8.232 39.3137 8.39185 38.9172 8.57834C38.3092 8.84475 37.8069 9.16445 37.4368 9.53743C37.0932 9.85712 36.8024 10.2567 36.4852 10.7363C36.4323 10.4166 36.3266 10.1235 36.2208 9.83048C35.8243 8.97796 34.9519 7.96559 32.9693 7.96559C32.4671 7.96559 32.0177 8.01887 31.5683 8.15208H26.2548L25.4882 10.6031C25.4089 10.3367 25.2767 10.0969 25.1446 9.85712C24.3515 8.57834 22.8711 7.93895 20.7563 7.93895C19.0381 7.93895 17.4784 8.41849 16.1831 9.3243C15.9452 9.48415 15.7073 9.67063 15.4958 9.85712V9.83048C15.4958 8.01887 15.02 6.74009 14.0154 5.91421C13.1431 5.16826 11.8478 4.79528 10.0766 4.79528C7.96181 4.79528 6.08493 5.38139 4.52526 6.50032C2.93916 7.72582 1.82889 9.35094 1.19445 11.4023C0.692189 13.0274 0.639319 14.4128 1.03584 15.5317C1.4588 16.7039 2.14611 17.5298 3.12421 18.0094C3.99656 18.4356 5.1597 18.6487 6.61363 18.6487C7.82964 18.6487 8.88704 18.4889 9.75939 18.1426C10.6317 17.8229 11.4777 17.3167 12.2443 16.6507C12.5879 16.331 12.9845 15.9047 13.3281 15.4784C13.5132 16.3576 13.9626 16.9703 14.3326 17.3433C15.205 18.2225 16.4739 18.6487 18.1393 18.6487C19.884 18.6487 21.4437 18.1692 22.7654 17.2368C23.0826 16.997 23.3998 16.7572 23.6642 16.4908L22.0781 21.5527H27.6294L28.634 18.3291C29.1098 18.5422 29.6649 18.6487 30.2994 18.6487C31.5947 18.6487 32.8107 18.2225 33.8945 17.3433C34.2118 17.1036 34.5025 16.8105 34.7669 16.4908C34.8726 16.8904 35.0577 17.2634 35.3485 17.5831C35.9565 18.2758 36.9081 18.6221 38.2827 18.6221C39.1815 18.6221 40.0275 18.4889 40.7676 18.2225C40.8998 18.1692 41.032 18.1159 41.1377 18.0626L41.2699 18.4356H50.8394L51.9232 14.9456C52.3726 13.507 52.7956 12.9209 52.9806 12.7077C53.1656 12.5213 53.2978 12.4946 53.43 12.4946C53.43 12.4946 53.5622 12.4946 53.853 12.6278L54.5931 12.9475L54.9368 12.5213H55.9678L55.5184 13.9865C55.1483 15.0788 55.0425 15.8781 55.1483 16.4642C55.254 17.1835 55.6241 17.7696 56.2321 18.1159C56.7344 18.4356 57.4746 18.5688 58.532 18.5688C59.2986 18.5688 60.1709 18.4889 61.0961 18.3024L61.5455 18.2225L61.7835 18.1692L62.7087 13.5869L61.0433 14.0664L61.5191 12.5213H63.3431L64.7177 8.12544H62.8937V8.17872Z" fill="#363A3F"/>
<path fill-rule="evenodd" clip-rule="evenodd" d="M9.51829 12.4679L9.28037 12.8408C9.01602 13.2671 8.72524 13.5868 8.46089 13.7999C8.11723 14.0663 7.69427 14.1995 7.16557 14.1995C6.74261 14.1995 6.47826 14.093 6.37252 13.8798C6.34609 13.8266 6.16104 13.4003 6.61044 11.935C6.90122 11.0559 7.24488 10.3898 7.61497 10.0169C8.0908 9.53732 8.64593 9.29754 9.28037 9.29754C9.51829 9.29754 9.70333 9.32419 9.83551 9.40411C9.99412 9.48403 10.0999 9.61724 10.1263 9.93694L10.1792 10.6563H15.0696C14.5938 11.1891 14.1973 11.8018 13.9329 12.4412H9.51829V12.4679ZM20.3566 13.054C20.1716 13.6667 19.9337 14.093 19.6429 14.3327C19.3521 14.5725 19.0613 14.6791 18.797 14.6791C18.5326 14.6791 18.4798 14.5992 18.4533 14.5192C18.4269 14.4926 18.3211 14.2795 18.5591 13.5335C18.7177 12.974 18.9556 12.5744 19.2728 12.308C19.5636 12.0682 19.8544 11.9617 20.1716 11.9617C20.4095 11.9617 20.4359 12.0416 20.4888 12.0949C20.4624 12.1482 20.5681 12.3347 20.3566 13.054ZM29.7939 13.5602C29.9525 13.0273 30.1905 12.6277 30.4284 12.4146C30.6663 12.2014 30.9042 12.1215 31.1421 12.1215C31.2743 12.1215 31.2743 12.1482 31.3007 12.2014C31.3272 12.2547 31.3536 12.4945 31.1685 13.0273C31.0099 13.5602 30.7985 13.9598 30.5605 14.1729C30.3491 14.3594 30.1376 14.4393 29.9525 14.4393C29.7146 14.4393 29.6882 14.386 29.6618 14.3327C29.6882 14.3327 29.6089 14.1729 29.7939 13.5602ZM36.0326 13.4269C36.1383 13.0273 36.2176 12.6277 36.2705 12.2547L37.7509 12.4146C37.2222 12.6011 36.7728 12.8142 36.4291 13.1073C36.2969 13.1872 36.1648 13.2937 36.0326 13.4269ZM63.1285 12.308L64.318 8.47166H62.5205L63.6572 4.79517L57.9736 7.16624L57.5771 8.47166H56.3611L56.2818 8.73808C55.7002 8.41838 55.1451 8.28518 54.5371 8.28518C54.1406 8.28518 53.744 8.33846 53.4004 8.47166H48.695L45.9193 17.4231L45.8928 17.2633C45.84 16.8903 45.8135 16.7038 45.84 16.5973C45.84 16.4907 45.8928 16.3042 45.9986 15.8779L47.1089 12.2814C47.2675 11.8018 47.3203 11.3223 47.2939 10.7628C47.2675 10.1767 47.056 9.67052 46.7388 9.32419C46.3422 8.84464 45.7342 8.55159 44.9941 8.41838C44.4125 8.31182 43.6194 8.25853 42.4827 8.25853C41.8219 8.25853 41.2138 8.31182 40.6058 8.39174C39.9185 8.49831 39.4163 8.63151 39.0462 8.818C38.4646 9.05777 37.9888 9.37747 37.6187 9.72381C37.2222 10.0701 36.8785 10.5497 36.5613 11.1624L36.2969 11.6686C36.2969 11.0292 36.1912 10.4698 35.9533 9.93694C35.5832 9.16434 34.7901 8.25853 32.9397 8.25853C32.3053 8.25853 31.6972 8.3651 31.0892 8.60487L31.1421 8.44502H26.4367L25.4057 11.8018C25.3793 11.1624 25.1942 10.5763 24.877 10.0435C24.1368 8.87128 22.7358 8.25853 20.7267 8.25853C19.0613 8.25853 17.5545 8.71144 16.3121 9.5906C15.8891 9.88365 15.519 10.2033 15.1754 10.5763V9.88365C15.1754 8.15197 14.726 6.95311 13.7743 6.18051C12.9548 5.4612 11.7124 5.11486 9.99412 5.11486C7.93219 5.11486 6.10817 5.67433 4.60138 6.76662C3.09459 7.85891 2.03719 9.45739 1.42918 11.4555C0.953351 13.0007 0.874046 14.3327 1.24414 15.3984C1.64066 16.4907 2.30154 17.2633 3.17389 17.7162C3.99337 18.1425 5.13008 18.3289 6.53113 18.3289C7.69427 18.3289 8.72524 18.1691 9.57116 17.8494C10.4171 17.5297 11.2366 17.0502 11.9767 16.4108C12.479 15.9579 13.0077 15.3185 13.4307 14.7057C13.4571 15.8513 13.9858 16.6505 14.4352 17.1034C15.2547 17.9293 16.4707 18.3289 18.0568 18.3289C19.7486 18.3289 21.2554 17.876 22.5243 16.9702C23.2381 16.4641 23.8196 15.8779 24.269 15.1853L22.3921 21.2328H27.3619L28.3929 17.9027C28.4457 17.9293 28.525 17.956 28.5779 17.9826C29.0537 18.1957 29.6089 18.3023 30.2169 18.3023C31.4329 18.3023 32.596 17.876 33.627 17.0768C34.1028 16.7038 34.5258 16.2509 34.8959 15.7181C34.8694 16.4907 35.1867 17.0235 35.4775 17.3699C36.0326 18.0092 36.9314 18.3289 38.2003 18.3289C39.0726 18.3289 39.8657 18.1957 40.6058 17.956C40.8173 17.876 41.0288 17.7961 41.2403 17.6896L41.3989 18.1691H50.5454L51.5764 14.8922C52.0258 13.4536 52.4487 12.8142 52.7131 12.5478C52.9245 12.3613 53.136 12.2547 53.3475 12.2547C53.4004 12.2547 53.559 12.2814 53.9026 12.4146L54.4578 12.6543L54.7486 12.2814H56.3082L55.7267 14.1196C55.383 15.1853 55.2508 15.9312 55.3566 16.4641C55.4359 17.1034 55.7795 17.6096 56.3082 17.9293C56.7576 18.2224 57.4449 18.3556 58.4495 18.3556C59.2161 18.3556 60.0356 18.2757 60.9608 18.0892L61.4631 17.9826L62.2561 14.0397L61.0137 14.4127C60.8286 14.466 60.67 14.5192 60.5378 14.5459L61.2251 12.308H63.1285Z" fill="#151317"/>
<path fill-rule="evenodd" clip-rule="evenodd" d="M11.5046 15.8504C12.2183 15.211 13.0378 14.1453 13.4343 13.2662H9.94489C9.65411 13.7457 9.31045 14.1453 8.94036 14.4118C8.46453 14.7847 7.88296 14.9712 7.16922 14.9712C6.45547 14.9712 5.95321 14.7314 5.68886 14.2785C5.42451 13.799 5.50381 12.9465 5.8739 11.721C6.19112 10.7086 6.58765 9.96265 7.06348 9.50975C7.69792 8.87036 8.4381 8.55067 9.28402 8.55067C9.65411 8.55067 9.97133 8.63059 10.2092 8.7638C10.6586 9.03021 10.8437 9.42983 10.8966 9.90937H14.386C14.386 8.79044 14.2009 7.56494 13.2757 6.79234C12.6413 6.20623 11.531 5.93982 10.0506 5.93982C8.12088 5.93982 6.48191 6.446 5.10729 7.45837C3.7591 8.4441 2.78101 9.88273 2.19944 11.7476C1.75004 13.133 1.69717 14.3052 2.01439 15.1843C2.33161 16.0902 2.86031 16.7029 3.57406 17.0759C4.2878 17.4222 5.29233 17.6087 6.58765 17.6087C7.64505 17.6087 8.57027 17.4755 9.36332 17.1558C10.1299 16.8627 10.8701 16.4098 11.5046 15.8504ZM20.1224 14.9446C20.5453 14.5982 20.8625 14.0654 21.1005 13.2928C21.3119 12.6001 21.3384 12.0673 21.1269 11.721C20.9154 11.3746 20.5982 11.2148 20.1488 11.2148C19.6465 11.2148 19.1971 11.3746 18.7742 11.721C18.3512 12.0673 18.034 12.6001 17.8225 13.3195C17.5846 14.0388 17.5846 14.5716 17.7961 14.9179C17.9811 15.2643 18.3248 15.4508 18.8006 15.4508C19.25 15.4508 19.6994 15.2643 20.1224 14.9446ZM20.7568 9.05685C22.5015 9.05685 23.6647 9.53639 24.2462 10.4688C24.7221 11.2414 24.7749 12.1739 24.4313 13.2928C24.0347 14.545 23.2946 15.584 22.1579 16.3832C21.0212 17.1824 19.673 17.5821 18.1397 17.5821C16.7387 17.5821 15.7342 17.2357 15.0733 16.5963C14.2802 15.7705 14.0952 14.6782 14.5181 13.3461C14.8882 12.1206 15.6549 11.0816 16.818 10.2557C17.9018 9.45647 19.2236 9.05685 20.7568 9.05685ZM31.9652 13.2662C31.7538 13.9855 31.463 14.4917 31.0929 14.7847C30.7492 15.0778 30.3791 15.2376 29.9826 15.2376C29.5332 15.2376 29.216 15.0778 29.031 14.7581C28.8459 14.4384 28.8459 13.9588 29.0574 13.3195C29.2689 12.6268 29.5597 12.1206 29.9562 11.8009C30.3263 11.4812 30.7228 11.3214 31.1722 11.3214C31.5423 11.3214 31.8331 11.4546 32.0181 11.7743C32.1767 12.1206 32.1767 12.6001 31.9652 13.2662ZM35.2696 10.2823C34.8995 9.45647 34.1329 9.03021 32.9698 9.03021C32.3882 9.03021 31.8331 9.13677 31.2515 9.37655C30.8285 9.53639 30.3527 9.88273 29.7447 10.3889L30.1148 9.19006H27.0219L23.5325 20.4327H26.8633L28.0793 16.5431C28.3172 16.8628 28.608 17.1025 28.9781 17.2624C29.3482 17.4222 29.7711 17.5288 30.2998 17.5288C31.3572 17.5288 32.3353 17.1824 33.2341 16.4631C34.1593 15.7438 34.8202 14.7048 35.2432 13.3461C35.6133 12.1472 35.6133 11.1349 35.2696 10.2823ZM42.037 14.9712C42.2485 14.7314 42.4071 14.4118 42.5392 14.0121L42.6979 13.5059C42.1956 13.6658 41.6933 13.799 41.1382 13.9322C40.4244 14.0921 39.9486 14.2519 39.7107 14.4384C39.4728 14.5982 39.3142 14.7847 39.2613 14.9979C39.182 15.2376 39.2084 15.4508 39.3406 15.584C39.4728 15.7438 39.7107 15.8237 40.0544 15.8237C40.4244 15.8237 40.7945 15.7438 41.1646 15.5573C41.5347 15.3975 41.8255 15.211 42.037 14.9712ZM46.1344 9.85609C46.3459 10.0959 46.4781 10.4156 46.5045 10.8152C46.5309 11.2414 46.4781 11.6411 46.3723 12.014L45.2621 15.6106C45.1563 15.9836 45.077 16.3033 45.077 16.5164C45.0506 16.7295 45.1034 17.0226 45.1563 17.3689H42.0634C41.9841 17.1558 41.9577 16.996 41.9577 16.8894C41.9577 16.7828 41.9841 16.5963 42.0105 16.3832C41.4554 16.7562 40.9267 17.0492 40.4509 17.2357C39.79 17.4755 39.0763 17.5821 38.3096 17.5821C37.2787 17.5821 36.5649 17.3423 36.1684 16.8894C35.7719 16.4365 35.6661 15.9037 35.8776 15.211C36.0627 14.5982 36.4063 14.0921 36.935 13.6924C37.4373 13.2928 38.2568 12.9998 39.3406 12.8133C40.6624 12.5735 41.5083 12.387 41.9048 12.3071C42.3013 12.2005 42.7243 12.0673 43.2001 11.9341C43.3059 11.5611 43.3059 11.2681 43.2001 11.1349C43.0679 10.975 42.8036 10.8951 42.3806 10.8951C41.8255 10.8951 41.4025 10.975 41.0853 11.1349C40.821 11.2681 40.5831 11.5078 40.3451 11.8542L37.2522 11.5611C37.543 11.0283 37.8338 10.6287 38.151 10.309C38.4683 10.0159 38.8648 9.74952 39.367 9.53639C39.7107 9.37655 40.1601 9.24334 40.7152 9.16342C41.2704 9.08349 41.8519 9.03021 42.4864 9.03021C43.4645 9.03021 44.2575 9.08349 44.8391 9.19006C45.3942 9.29662 45.8436 9.50975 46.1344 9.85609ZM49.2802 9.24334H52.3731L51.9501 10.5754C52.4259 10.0159 52.8753 9.61632 53.2454 9.40319C53.6155 9.16342 54.0385 9.08349 54.5143 9.08349C55.0166 9.08349 55.4924 9.2167 55.9947 9.50975L54.2764 11.721C53.9327 11.5611 53.6419 11.4812 53.404 11.4812C52.9546 11.4812 52.5845 11.6411 52.2409 11.9874C51.7651 12.4669 51.3157 13.3461 50.8927 14.6782L50.0468 17.3956H46.716L49.2802 9.24334ZM61.4667 9.24334L62.4184 6.12631L58.6117 7.72479L58.1359 9.24334H56.8934L56.1797 11.5345H57.3957L56.5498 14.3851C56.259 15.2909 56.1268 15.9569 56.2061 16.3566C56.259 16.7562 56.4705 17.0759 56.7877 17.2624C57.1049 17.4755 57.6865 17.5554 58.5324 17.5554C59.2462 17.5554 60.0392 17.4755 60.8851 17.289L61.3345 15.1311C60.8587 15.2643 60.4886 15.3442 60.2507 15.3442C59.9599 15.3442 59.8013 15.2376 59.7484 15.0778C59.722 14.9712 59.7484 14.7314 59.8542 14.3851L60.753 11.4812H62.577L63.2907 9.19006H61.4667V9.24334Z" fill="white"/>
<defs>
<linearGradient id="paint0_linear_817_5472" x1="85.175" y1="2.54541" x2="85.175" y2="26.1436" gradientUnits="userSpaceOnUse">
<stop stop-opacity="0"/>
<stop offset="0.505208"/>
<stop offset="1" stop-opacity="0"/>
</linearGradient>
</defs>
</svg>
