<svg xmlns="http://www.w3.org/2000/svg" fill="none" viewBox="0 0 60 40"><path stroke="#1571FD" stroke-width="4" d="M14 34.27c0 .69-.57 2.85-2.29 2.85H4.3c-.77 0-2.29-.41-2.29-2.08V19.46c0-2.08 1.6-4.16 3.43-4.16.38 0 1.14-.2 1.14-1.03 0-1.04-1.14-1.04-3.43-1.04C2 13.23 2 11.15 4.3 11.15h4.57c2.28-3.12 5.71-8.31 8-8.31h16M46 34.27c0 1.5 1.14 2.85 2.86 2.85h6.85c.77 0 2.29-.41 2.29-2.08V19.46c0-2.08-1.6-4.16-3.43-4.16-.38 0-1.14-.2-1.14-1.03 0-1.04 1.14-1.04 3.43-1.04 1.14 0 1.14-2.08-1.15-2.08h-4.57c-2.28-3.12-6.85-8.31-8-8.31h-16"/><path stroke="#1571FD" stroke-width="4" d="M14.9 13.12c9.43.94 23.93.75 29.2 0m-32.96 5.63 6.6.94m31.08-.94-6.6.94m-22.6 3.75h8.48l1.88 1.87 1.88-1.87h8.48" opacity=".4"/><path stroke="#1571FD" stroke-width="4" d="M11.71 32.55c14.13.94 21.5.94 36.58 0"/></svg>