<svg width="62" height="51" viewBox="0 0 62 51" fill="none" xmlns="http://www.w3.org/2000/svg">
<path fill-rule="evenodd" clip-rule="evenodd" d="M45 26.1414C45.7754 25.3547 46.5 24.6414 46.8001 25.024L60.9009 38.9225C61.6876 39.6979 61.6967 40.9642 60.9213 41.7509C60.146 42.5376 58.8797 42.5467 58.093 41.7713L43.9921 27.8728C43.5 27.6414 44.2246 26.928 45 26.1414Z" fill="white"/>
<path fill-rule="evenodd" clip-rule="evenodd" d="M45 26.1414C45.7754 25.3547 46.5 24.6414 46.8001 25.024L60.9009 38.9225C61.6876 39.6979 61.6967 40.9642 60.9213 41.7509C60.146 42.5376 58.8797 42.5467 58.093 41.7713L43.9921 27.8728C43.5 27.6414 44.2246 26.928 45 26.1414Z" fill="url(#paint0_linear_482_17585)"/>
<path fill-rule="evenodd" clip-rule="evenodd" d="M28.1455 35.1103C30.6449 37.5451 34.9852 37.3601 37.0646 34.2823C37.6147 33.4681 38.0715 32.8806 38.285 32.6727L52.1076 19.2072C52.5314 18.7944 53.0645 18.3916 53.6084 18.0362C56.6183 16.07 57.1481 11.8024 54.4796 9.20288L54.3545 9.08104C54.3504 9.077 54.3462 9.07297 54.3421 9.06894L47.0154 1.93151C47.0112 1.92749 47.0071 1.92347 47.003 1.91946L46.7476 1.67075C44.2482 -0.764085 39.9079 -0.579127 37.8286 2.49868C37.2785 3.31293 36.8216 3.90039 36.6082 4.10833L22.7843 17.575C22.3607 17.9874 21.8281 18.3898 21.2847 18.7448C18.2748 20.711 17.7451 24.9786 20.4136 27.5781L20.5387 27.7C20.5428 27.704 20.5469 27.7081 20.551 27.7121" fill="white"/>
<path fill-rule="evenodd" clip-rule="evenodd" d="M28.1455 35.1103C30.6449 37.5451 34.9852 37.3601 37.0646 34.2823C37.6147 33.4681 38.0715 32.8806 38.285 32.6727L52.1076 19.2072C52.5314 18.7944 53.0645 18.3916 53.6084 18.0362C56.6183 16.07 57.1481 11.8024 54.4796 9.20288L54.3545 9.08104C54.3504 9.077 54.3462 9.07297 54.3421 9.06894L47.0154 1.93151C47.0112 1.92749 47.0071 1.92347 47.003 1.91946L46.7476 1.67075C44.2482 -0.764085 39.9079 -0.579127 37.8286 2.49868C37.2785 3.31293 36.8216 3.90039 36.6082 4.10833L22.7843 17.575C22.3607 17.9874 21.8281 18.3898 21.2847 18.7448C18.2748 20.711 17.7451 24.9786 20.4136 27.5781L20.5387 27.7C20.5428 27.704 20.5469 27.7081 20.551 27.7121" fill="url(#paint1_linear_482_17585)"/>
<path fill-rule="evenodd" clip-rule="evenodd" d="M26 8C26.781 7.21895 27.719 6.71895 28.5 7.5L30.5758 9.52591C31 9.64136 30.032 10.4943 29.251 11.2754C28.4699 12.0564 28 12.6414 27.3416 12.1414L25.5 10.5C24.719 9.71895 25.219 8.78105 26 8Z" fill="white"/>
<path fill-rule="evenodd" clip-rule="evenodd" d="M26 8C26.781 7.21895 27.719 6.71895 28.5 7.5L30.5758 9.52591C31 9.64136 30.032 10.4943 29.251 11.2754C28.4699 12.0564 28 12.6414 27.3416 12.1414L25.5 10.5C24.719 9.71895 25.219 8.78105 26 8Z" fill="url(#paint2_linear_482_17585)"/>
<path fill-rule="evenodd" clip-rule="evenodd" d="M2 43.4783C0.89543 43.4783 0 44.3737 0 45.4783V48.464C0 49.5686 0.89543 50.464 2 50.464H50.3905C51.4951 50.464 52.3905 49.5686 52.3905 48.464V45.4783C52.3905 44.3737 51.4951 43.4783 50.3905 43.4783H2Z" fill="#BFCEFF" fill-opacity="0.6"/>
<g filter="url(#filter0_b_482_17585)">
<path d="M5.23828 39C5.23828 35.6863 7.92457 33 11.2383 33H41.1507C44.4644 33 47.1507 35.6863 47.1507 39V50.4635H5.23828V39Z" fill="#BFCEFF" fill-opacity="0.6"/>
</g>
<rect opacity="0.2" x="2" y="46" width="49" height="2" fill="#0A1CFB"/>
<defs>
<filter id="filter0_b_482_17585" x="1.23828" y="29" width="49.9124" height="25.4635" filterUnits="userSpaceOnUse" color-interpolation-filters="sRGB">
<feFlood flood-opacity="0" result="BackgroundImageFix"/>
<feGaussianBlur in="BackgroundImageFix" stdDeviation="2"/>
<feComposite in2="SourceAlpha" operator="in" result="effect1_backgroundBlur_482_17585"/>
<feBlend mode="normal" in="SourceGraphic" in2="effect1_backgroundBlur_482_17585" result="shape"/>
</filter>
<linearGradient id="paint0_linear_482_17585" x1="40.0922" y1="0" x2="40.0922" y2="42.3469" gradientUnits="userSpaceOnUse">
<stop stop-color="#3F7CEE"/>
<stop offset="1" stop-color="#092FFB"/>
</linearGradient>
<linearGradient id="paint1_linear_482_17585" x1="40.0922" y1="0" x2="40.0922" y2="42.3469" gradientUnits="userSpaceOnUse">
<stop stop-color="#3F7CEE"/>
<stop offset="1" stop-color="#092FFB"/>
</linearGradient>
<linearGradient id="paint2_linear_482_17585" x1="27.0607" y1="6.11169" x2="27.0607" y2="11.858" gradientUnits="userSpaceOnUse">
<stop stop-color="#3F7CEE"/>
<stop offset="1" stop-color="#092FFB"/>
</linearGradient>
</defs>
</svg>
