<svg xmlns="http://www.w3.org/2000/svg" fill="none" viewBox="0 0 37 37"><mask id="a" width="30.8" height="30.01" x="6.1" y="-2.58" fill="#000" maskUnits="userSpaceOnUse"><path fill="#fff" d="M6.1-2.58h30.8v30.01H6.1z"/><path d="M13.41 16.41c-.38-.37-.4-.96-.04-1.32L23.93 4.81c.36-.36.97-.34 1.36.04l4.2 4.09c.38.37.4.96.03 1.32L18.97 20.54c-.37.35-.97.34-1.36-.04l-4.2-4.09Z"/><path d="M22.65 7.42c-.39-.38-.4-.97-.04-1.33.3-.3.68-.81 1-1.27.33-.5 1.07-.56 1.52-.12L29.56 9c.48.47.38 1.24-.15 1.58a8.1 8.1 0 0 0-1.2.95l-.11.1c-.37.36-.87.24-1.26-.13l-4.2-4.1ZM20.25 17.93c.38.38.4.97.04 1.32-.31.3-.69.82-1 1.28-.33.5-1.07.56-1.53.12l-4.43-4.31a1.02 1.02 0 0 1 .16-1.59 8.1 8.1 0 0 0 1.3-1.05c.37-.35.88-.23 1.26.14l4.2 4.1Z"/></mask><path fill="#2158F5" d="m29.41 10.6-2.26-3.28 2.26 3.27Zm-5.8-5.78-3.39-2.17 3.38 2.17Zm-3.32 14.43-2.87-2.79 2.87 2.8Zm-5.6-5.44L11.83 11l2.86 2.8Zm1.36.03-2.86 2.8 2.86-2.8Zm-1.25-.14-2.87-2.79 2.87 2.8Zm-1.47 2.64 2.87-2.8-2.87 2.8Zm.16-1.59 2.25 3.28-2.25-3.28Zm4.27 5.9-2.86 2.8 2.86-2.8Zm1.53-.12 3.39 2.17-3.39-2.17Zm.96-2.6 2.86-2.79-2.86 2.8Zm-4.01-.05L26.79 7.6l-5.73-5.58L10.51 12.3l5.73 5.58Zm6.18-10.24 4.2 4.09 5.73-5.59-4.2-4.08-5.73 5.58Zm4.24-.17L16.1 17.75l5.73 5.58L32.4 13.05l-5.73-5.58ZM20.47 17.7l-4.2-4.09-5.72 5.59 4.2 4.08 5.72-5.58Zm-4.37.04a3.15 3.15 0 0 1 4.37-.04l-5.73 5.58a5.1 5.1 0 0 0 7.1.04l-5.74-5.58Zm10.52-6.02a2.96 2.96 0 0 1 .04-4.26l5.73 5.58a4.8 4.8 0 0 0-.04-6.9l-5.73 5.58Zm.17-4.13a3.15 3.15 0 0 1-4.37.04l5.73-5.58a5.1 5.1 0 0 0-7.09-.04L26.8 7.6Zm-16.28 4.7a4.8 4.8 0 0 0 .04 6.9l5.73-5.58a2.96 2.96 0 0 1-.04 4.26L10.5 12.3Zm11.76-4.81 4.43 4.31 5.73-5.58L28 1.91l-5.73 5.58Zm7.44 1.22-4.2-4.08-5.73 5.58 4.2 4.09L29.7 8.7Zm-4.24.18A12.7 12.7 0 0 0 27 6.99l-6.77-4.34a10.91 10.91 0 0 1-.48.66c-.04.03-.03.03 0 0l5.73 5.58Zm1.68-1.57c-.52.34-1.19.82-1.81 1.43l5.73 5.59c.14-.14.34-.3.6-.47l-4.52-6.55Zm-1.81 1.43h-.01v.01h-.01v.01h-.01v.01h-.01v.01h-.01v.01h-.01v.01h-.01v.01h-.01v.01h-.01v.01h-.01v.01l5.72 5.59v-.01h.02v-.01H31v-.01H31v-.01h.01v-.01h.01v-.01h.01v-.01h.01v-.01h.01v-.01h.01v-.01l-5.72-5.59Zm-1.36 5.55c.61.6 1.58 1.26 2.88 1.45a4.83 4.83 0 0 0 4.1-1.31l-5.73-5.58a3.41 3.41 0 0 1 2.86-.91c.86.13 1.39.54 1.62.76l-5.73 5.59Zm2.72-2.5a2.86 2.86 0 0 1 .45-4.48l4.52 6.55a4.9 4.9 0 0 0 .76-7.65L26.7 11.8ZM28 1.9a5.12 5.12 0 0 0-7.78.75l6.77 4.34a3.11 3.11 0 0 1-4.72.5L28 1.91ZM25.5 4.64a2.96 2.96 0 0 1-.04 4.26L19.74 3.3a4.8 4.8 0 0 0 .04 6.9l5.73-5.57Zm-4.88 13.23-4.43-4.31-5.73 5.58 4.43 4.31 5.73-5.58Zm-7.44-1.23 4.2 4.1 5.72-5.59-4.2-4.09-5.72 5.58Zm4.23-.17a12.7 12.7 0 0 0-1.51 1.9l6.77 4.34a10.86 10.86 0 0 1 .48-.66c.03-.03.03-.03 0 0l-5.74-5.58Zm-1.68 1.57c.53-.34 1.19-.82 1.82-1.43L11.83 11c-.14.14-.35.3-.6.47l4.51 6.55Zm1.82-1.43.05-.06.05-.05-5.73-5.58-.05.05-.05.05 5.73 5.59Zm1.36-5.55a5.27 5.27 0 0 0-2.89-1.45 4.83 4.83 0 0 0-4.1 1.31l5.73 5.58a3.42 3.42 0 0 1-2.86.91 2.92 2.92 0 0 1-1.61-.77l5.73-5.58Zm-2.72 2.5a2.86 2.86 0 0 1-.46 4.48l-4.51-6.55a4.9 4.9 0 0 0-.76 7.65l5.73-5.58Zm-1.3 9.9a5.12 5.12 0 0 0 7.78-.75l-6.77-4.34a3.11 3.11 0 0 1 4.72-.5l-5.73 5.58Zm2.48-2.73a2.96 2.96 0 0 1 .04-4.26l5.73 5.59a4.8 4.8 0 0 0-.04-6.91l-5.73 5.58Z" mask="url(#a)"/><path fill="#2158F5" d="M16.05 8.7c0-.7.6-1.28 1.32-1.28.73 0 1.32.57 1.32 1.28 0 .71-.6 1.29-1.32 1.29a1.3 1.3 0 0 1-1.32-1.29ZM24.26 16.76l1.3-1.27 8.54 8.44c.34.33.34.87 0 1.2a.9.9 0 0 1-1.24 0l-8.6-8.37Z"/><path stroke="#2158F5" stroke-linecap="round" stroke-width="4" d="M34.07 25.25 26 17.29M16 7.79l-1-1"/><path fill="#2158F5" fill-rule="evenodd" d="M21 30.29H9a2 2 0 0 0-2 2h8v4h7v-4h1a2 2 0 0 0-2-2Zm6 2a6 6 0 0 0-6-6H9a6 6 0 0 0-6 6H2a2 2 0 0 0 0 4h26a2 2 0 0 0 0-4h-1Z" clip-rule="evenodd" opacity=".4"/></svg>