<svg xmlns="http://www.w3.org/2000/svg" fill="none" viewBox="0 0 42 42"><circle cx="21" cy="9.33" r="7.33" stroke="#1571FD" stroke-width="4"/><path stroke="#1571FD" stroke-linecap="round" stroke-width="4" d="M2 37.45c0-2.67 1.63-5.35 4.97-7.46 3.34-2.1 8.2-3.49 14.03-3.49 5.77 0 10.63 1.59 13.99 3.81 3.43 2.27 5.01 4.97 5.01 7.14V39a1 1 0 0 1-1 1H3a1 1 0 0 1-1-1v-1.55Z"/><g fill="#1571FD" opacity=".3"><path d="M30.33 18.67c0-1.08.87-1.95 1.95-1.95h7.78a1.94 1.94 0 0 1 0 3.89h-7.78a1.94 1.94 0 0 1-1.95-1.94Z"/><path d="M36.17 12.83c1.07 0 1.94.87 1.94 1.95v7.78a1.94 1.94 0 0 1-3.89 0v-7.78c0-1.08.87-1.95 1.95-1.95Z"/></g></svg>