<svg width="61" height="57" viewBox="0 0 61 57" fill="none" xmlns="http://www.w3.org/2000/svg">
<g clip-path="url(#clip0_757_5574)">
<path fill-rule="evenodd" clip-rule="evenodd" d="M47.7997 2.3703C45.4894 0.1959 41.8856 0.1959 39.5753 2.3703L28.5753 12.7232C27.3706 13.8571 26.6875 15.4381 26.6875 17.0924V50.5C26.6875 53.8137 29.3738 56.5 32.6875 56.5H54.6875C58.0012 56.5 60.6875 53.8137 60.6875 50.5V17.0924C60.6875 15.4381 60.0044 13.8571 58.7997 12.7232L47.7997 2.3703ZM43.6875 14.5C45.8966 14.5 47.6875 12.7091 47.6875 10.5C47.6875 8.2909 45.8966 6.5 43.6875 6.5C41.4784 6.5 39.6875 8.2909 39.6875 10.5C39.6875 12.7091 41.4784 14.5 43.6875 14.5Z" fill="url(#paint0_linear_757_5574)"/>
<path d="M46.6914 16.0508V21.8125H43.6445V16.0508H46.6914ZM46.3203 47.9453V53.1992H43.2734V47.9453H46.3203ZM48.4688 41.5391C48.4688 40.7969 48.332 40.1654 48.0586 39.6445C47.7982 39.1237 47.3685 38.6615 46.7695 38.2578C46.1836 37.8542 45.3893 37.4635 44.3867 37.0859C42.694 36.4349 41.2031 35.7448 39.9141 35.0156C38.638 34.2734 37.6419 33.3555 36.9258 32.2617C36.2096 31.1549 35.8516 29.7552 35.8516 28.0625C35.8516 26.4479 36.2357 25.0482 37.0039 23.8633C37.7721 22.6784 38.8333 21.7669 40.1875 21.1289C41.5547 20.4779 43.1432 20.1523 44.9531 20.1523C46.3333 20.1523 47.5833 20.3607 48.7031 20.7773C49.8229 21.181 50.7865 21.7799 51.5938 22.5742C52.401 23.3555 53.0195 24.3125 53.4492 25.4453C53.8789 26.5781 54.0938 27.8737 54.0938 29.332H48.4883C48.4883 28.5508 48.4036 27.8607 48.2344 27.2617C48.0651 26.6628 47.8177 26.1615 47.4922 25.7578C47.1797 25.3542 46.8021 25.0547 46.3594 24.8594C45.9167 24.651 45.4284 24.5469 44.8945 24.5469C44.1003 24.5469 43.4492 24.7031 42.9414 25.0156C42.4336 25.3281 42.0625 25.7513 41.8281 26.2852C41.6068 26.806 41.4961 27.4049 41.4961 28.082C41.4961 28.7461 41.6133 29.3255 41.8477 29.8203C42.0951 30.3151 42.5182 30.7708 43.1172 31.1875C43.7161 31.5911 44.5365 32.0078 45.5781 32.4375C47.2708 33.0885 48.7552 33.7917 50.0312 34.5469C51.3073 35.3021 52.3034 36.2266 53.0195 37.3203C53.7357 38.4141 54.0938 39.8073 54.0938 41.5C54.0938 43.1797 53.7031 44.612 52.9219 45.7969C52.1406 46.9688 51.0469 47.8672 49.6406 48.4922C48.2344 49.1042 46.6068 49.4102 44.7578 49.4102C43.5599 49.4102 42.3685 49.2539 41.1836 48.9414C39.9987 48.6159 38.9245 48.0951 37.9609 47.3789C36.9974 46.6628 36.2292 45.7122 35.6562 44.5273C35.0833 43.3294 34.7969 41.8581 34.7969 40.1133H40.4219C40.4219 41.0638 40.5456 41.8581 40.793 42.4961C41.0404 43.1211 41.3659 43.6224 41.7695 44C42.1862 44.3646 42.6549 44.625 43.1758 44.7812C43.6966 44.9375 44.224 45.0156 44.7578 45.0156C45.5911 45.0156 46.2747 44.8659 46.8086 44.5664C47.3555 44.2669 47.7656 43.8568 48.0391 43.3359C48.3255 42.8021 48.4688 42.2031 48.4688 41.5391Z" fill="#0A1CFB"/>
<path fill-rule="evenodd" clip-rule="evenodd" d="M52.3977 8.304C52.4747 5.1323 50.0692 2.4488 46.908 2.1799L31.8567 0.899499C30.2082 0.759299 28.575 1.3059 27.3432 2.4102L2.46718 24.7093C-0.000277042 26.9211 -0.207487 30.7145 2.00437 33.1819L16.689 49.5636C18.9009 52.0311 22.6942 52.2383 25.1617 50.0264L50.0377 27.7273C51.2696 26.6231 51.9908 25.0592 52.031 23.4053L52.3977 8.304ZM40.6208 13.3384C42.0954 14.9833 44.6243 15.1215 46.2692 13.6469C47.9142 12.1723 48.0524 9.6434 46.5778 7.9985C45.1032 6.3535 42.5743 6.2154 40.9294 7.6899C39.2844 9.1645 39.1462 11.6934 40.6208 13.3384Z" fill="#BFCEFF" fill-opacity="0.6"/>
<path opacity="0.2" d="M31.3644 12.0803L31.01 11.6985C29.8826 10.4843 27.9845 10.4139 26.7703 11.5412L10.8842 26.291C9.66999 27.4183 9.59958 29.3165 10.7269 30.5307L11.0814 30.9125C12.2087 32.1267 14.1069 32.1971 15.3211 31.0697L31.2072 16.32C32.4214 15.1926 32.4918 13.2944 31.3644 12.0803Z" fill="#0A1CFB"/>
<path opacity="0.2" d="M28.5207 26.3664L28.1662 25.9846C27.0389 24.7704 25.1407 24.7 23.9265 25.8273L15.8879 33.2909C14.6738 34.4182 14.6033 36.3164 15.7307 37.5306L16.0851 37.9124C17.2125 39.1266 19.1107 39.197 20.3249 38.0696L28.3634 30.6061C29.5776 29.4787 29.648 27.5805 28.5207 26.3664Z" fill="#0A1CFB"/>
</g>
<defs>
<linearGradient id="paint0_linear_757_5574" x1="43.6875" y1="-1.5" x2="43.6875" y2="56.5" gradientUnits="userSpaceOnUse">
<stop stop-color="#3F7CEE"/>
<stop offset="1" stop-color="#092FFB"/>
</linearGradient>
<clipPath id="clip0_757_5574">
<rect width="61" height="57" fill="white"/>
</clipPath>
</defs>
</svg>
