<svg width="53" height="62" viewBox="0 0 53 62" fill="none" xmlns="http://www.w3.org/2000/svg">
<path d="M0 58L0.5 17L18 21L35 16L53 20V60.5L35 58L18 62L0 58Z" fill="#D9D9D9"/>
<path d="M0 58L0.5 17L18 21L35 16L53 20V60.5L35 58L18 62L0 58Z" fill="url(#paint0_linear_482_17269)"/>
<mask id="mask0_482_17269" style="mask-type:alpha" maskUnits="userSpaceOnUse" x="0" y="16" width="53" height="46">
<path d="M0 58L0.5 17L18 21L35 16L53 20V60.5L35 58L18 62L0 58Z" fill="#D9D9D9"/>
<path d="M0 58L0.5 17L18 21L35 16L53 20V60.5L35 58L18 62L0 58Z" fill="url(#paint1_linear_482_17269)"/>
</mask>
<g mask="url(#mask0_482_17269)">
<rect x="18" y="14" width="17" height="53" fill="url(#paint2_linear_482_17269)"/>
<g style="mix-blend-mode:multiply" filter="url(#filter0_f_482_17269)">
<path fill-rule="evenodd" clip-rule="evenodd" d="M35 39C41.6274 39 47 22.5951 47 15.9792C47 9.36326 41.6274 4 35 4C28.3726 4 23 9.36326 23 15.9792C23 22.5951 28.3726 39 35 39Z" fill="#1827DF"/>
</g>
</g>
<g filter="url(#filter1_b_482_17269)">
<path fill-rule="evenodd" clip-rule="evenodd" d="M35 35C41.6274 35 47 18.5951 47 11.9792C47 5.36326 41.6274 0 35 0C28.3726 0 23 5.36326 23 11.9792C23 18.5951 28.3726 35 35 35Z" fill="#BFCEFF" fill-opacity="0.6"/>
</g>
<g opacity="0.2">
<circle cx="35" cy="12" r="4" fill="#D9D9D9"/>
<circle cx="35" cy="12" r="4" fill="#0A1CFB"/>
</g>
<defs>
<filter id="filter0_f_482_17269" x="19" y="0" width="32" height="43" filterUnits="userSpaceOnUse" color-interpolation-filters="sRGB">
<feFlood flood-opacity="0" result="BackgroundImageFix"/>
<feBlend mode="normal" in="SourceGraphic" in2="BackgroundImageFix" result="shape"/>
<feGaussianBlur stdDeviation="2" result="effect1_foregroundBlur_482_17269"/>
</filter>
<filter id="filter1_b_482_17269" x="19" y="-4" width="32" height="43" filterUnits="userSpaceOnUse" color-interpolation-filters="sRGB">
<feFlood flood-opacity="0" result="BackgroundImageFix"/>
<feGaussianBlur in="BackgroundImageFix" stdDeviation="2"/>
<feComposite in2="SourceAlpha" operator="in" result="effect1_backgroundBlur_482_17269"/>
<feBlend mode="normal" in="SourceGraphic" in2="effect1_backgroundBlur_482_17269" result="shape"/>
</filter>
<linearGradient id="paint0_linear_482_17269" x1="26.5" y1="16" x2="26.5" y2="62" gradientUnits="userSpaceOnUse">
<stop stop-color="#3F7CEE"/>
<stop offset="1" stop-color="#092FFB"/>
</linearGradient>
<linearGradient id="paint1_linear_482_17269" x1="26.5" y1="16" x2="26.5" y2="62" gradientUnits="userSpaceOnUse">
<stop stop-color="#3F7CEE"/>
<stop offset="1" stop-color="#092FFB"/>
</linearGradient>
<linearGradient id="paint2_linear_482_17269" x1="26.5" y1="14" x2="26.5" y2="67" gradientUnits="userSpaceOnUse">
<stop stop-color="#0C21E7"/>
<stop offset="1" stop-color="#0718FA"/>
</linearGradient>
</defs>
</svg>
