<svg width="48" height="48" viewBox="0 0 48 48" fill="none" xmlns="http://www.w3.org/2000/svg">
<circle cx="24" cy="24" r="24" fill="#F6F9FC"/>
<path d="M9.78768 22.0031C9.53887 22.6831 9.55244 23.452 9.8872 24.1542L11.0724 26.652C11.8143 28.212 12.7598 29.1542 13.841 29.4609L12.7281 29.972C12.4974 30.0786 12.3979 30.3453 12.5065 30.5764C13.0584 31.7364 14.4652 32.2386 15.646 31.6964L16.7995 31.1675C17.0302 31.0608 17.1298 30.7942 17.0212 30.5631L16.9036 30.3097L19.5681 32.4253C20.3054 33.0208 21.5087 33.0742 22.6306 32.563L31.7098 28.4031C32.8272 27.892 33.56 26.9542 33.5782 26.012L33.637 22.772L33.7275 22.9587C33.836 23.1853 34.1074 23.2831 34.3427 23.1765L35.4962 22.6475C36.6769 22.1053 37.1881 20.7231 36.6362 19.5631C36.5276 19.3365 36.2562 19.2387 36.021 19.3454L35.0167 19.8076C35.6501 18.7498 35.6229 17.3454 34.8674 15.7587L33.7455 13.3987C33.4017 12.6787 32.8046 12.1632 32.1034 11.8921L30.8549 9.26096C30.7463 9.0343 30.4748 8.93652 30.2396 9.04319L26.322 10.8387C26.0913 10.9454 25.9918 11.2121 26.1004 11.4432L26.9463 13.2254L25.1142 14.0654L16.0214 18.2298L14.1803 19.0742L13.3343 17.292C13.2257 17.0653 12.9543 16.9676 12.7191 17.0743L8.81054 18.8653C8.57984 18.972 8.48031 19.2387 8.58888 19.4698L9.78768 22.0031ZM15.2524 30.8697C14.6824 31.132 14.0174 30.9897 13.6057 30.5675L15.5736 29.6653L15.9852 30.5364L15.2524 30.8697ZM32.6462 25.9942C32.6327 26.572 32.0853 27.2253 31.3072 27.5808L22.228 31.7409C21.4545 32.0964 20.5949 32.092 20.1426 31.7231L16.3698 28.7275C16.9578 27.6209 23.5625 24.2876 28.2763 22.4031C28.3442 22.4031 28.412 22.3898 28.4799 22.3631L28.4889 22.3587L28.4753 22.3276C30.4703 21.5364 32.0899 21.0253 32.7322 21.0742L32.6462 25.9942ZM20.1742 22.5809L25.467 20.1587C25.8697 20.8076 26.4668 21.3942 27.2313 21.8831C26.2994 22.2654 25.3087 22.6964 24.2818 23.1676C22.7845 23.852 21.4816 24.4876 20.3643 25.0653C20.4954 24.1453 20.4321 23.3142 20.1742 22.5809ZM35.9124 20.3942C35.9758 20.9809 35.6636 21.5676 35.0891 21.8298L34.3562 22.1676L33.9446 21.2964L35.9124 20.3942ZM30.1989 10.0521L30.9724 11.6832C30.5427 11.6832 30.1084 11.7632 29.6923 11.9543L27.7697 12.8343L27.1182 11.461L30.1989 10.0521ZM24.8654 15.1676L24.8971 16.0031L17.6681 19.3142L17.0347 18.7543L24.8654 15.1676ZM16.1255 19.172L17.2745 20.1898C17.4102 20.3098 17.6092 20.3409 17.7767 20.2654L25.5575 16.7009C25.7249 16.6254 25.8289 16.4565 25.8244 16.2743L25.7701 14.7543L30.0813 12.7765C31.1399 12.2921 32.402 12.7409 32.895 13.7809L34.017 16.1409C34.5417 17.252 35.1162 19.2209 33.2479 20.252C32.7503 20.0565 31.8048 20.2253 30.1446 20.7809C29.5927 20.9676 28.9729 21.1898 28.3125 21.4476C27.5253 21.0431 26.5663 20.3764 26.0868 19.372C25.9782 19.1454 25.7068 19.0476 25.4716 19.1543L19.3871 21.9409C19.1564 22.0475 19.0569 22.3142 19.1655 22.5453C19.559 23.3765 19.5997 24.4164 19.3147 25.6253C17.089 26.8475 15.8179 27.8076 15.5102 28.492C14.0762 29.0386 12.8638 28.292 11.9048 26.2742L10.7196 23.7765C10.2627 22.812 10.6879 21.6654 11.6696 21.2165L16.1255 19.172ZM12.6829 18.0787L13.3343 19.452L11.2805 20.3942C10.9186 20.5587 10.611 20.7898 10.3577 21.0654L9.61125 19.492L12.6829 18.0787Z" fill="#2158F5" stroke="#2158F5"/>
<path d="M31.8478 18.5003C32.6209 18.0853 32.9541 17.0247 32.5942 16.1331C32.2344 15.2416 31.3147 14.8573 30.5417 15.2723C29.7686 15.6874 29.4355 16.748 29.7953 17.6395C30.1551 18.5259 31.0748 18.9154 31.8478 18.5003ZM30.9238 16.2151C31.2436 16.0409 31.6213 16.2049 31.7723 16.5738C31.9189 16.9427 31.7812 17.3782 31.4613 17.5524C31.1414 17.7266 30.7638 17.5627 30.6128 17.1938C30.4662 16.8249 30.6039 16.3893 30.9238 16.2151Z" fill="#56CCF2"/>
<path d="M28.5421 17.5297C29.0562 17.2326 29.2802 16.4745 29.0396 15.8393C28.7992 15.2042 28.1855 14.9276 27.6714 15.2246C27.1573 15.5218 26.9333 16.2798 27.1738 16.915C27.4143 17.5501 28.028 17.8267 28.5421 17.5297ZM28.2726 16.2798C28.314 16.3925 28.2767 16.5257 28.1855 16.582C28.0943 16.6333 27.9865 16.5872 27.9409 16.4745C27.8538 16.2491 28.1855 16.0544 28.2726 16.2798Z" fill="#56CCF2"/>
<path d="M14.8605 26.1549C15.6336 25.7993 15.9668 24.8904 15.6069 24.1264C15.2471 23.3624 14.3274 23.0331 13.5544 23.3888C12.7813 23.7444 12.4481 24.6533 12.808 25.4173C13.1678 26.1813 14.0875 26.5106 14.8605 26.1549ZM13.9365 24.2011C14.2563 24.0518 14.634 24.1923 14.785 24.5084C14.9316 24.8246 14.7939 25.1977 14.474 25.347C14.1541 25.4963 13.7765 25.3558 13.6255 25.0397C13.4789 24.7236 13.6166 24.346 13.9365 24.2011Z" fill="#56CCF2"/>
<path d="M16.1876 23.1501C16.7017 22.9125 16.9257 22.306 16.6852 21.7978C16.4447 21.2897 15.831 21.0684 15.3169 21.3061C14.8028 21.5438 14.5788 22.1503 14.8193 22.6584C15.0598 23.1665 15.6735 23.3878 16.1876 23.1501ZM15.9181 22.1503C15.9596 22.2404 15.9222 22.347 15.831 22.392C15.7398 22.433 15.632 22.3961 15.5864 22.306C15.5034 22.1216 15.8352 21.97 15.9181 22.1503Z" fill="#56CCF2"/>
<path d="M30.0254 25.3165L21.79 29.1836" stroke="#56CCF2" stroke-width="2" stroke-linecap="round"/>
<path d="M34.4452 31.6842L37.4699 34.3018C37.5751 34.3929 37.7154 34.4384 37.8556 34.4384C37.9959 34.4384 38.1362 34.3929 38.2414 34.3018C38.4562 34.1159 38.4562 33.82 38.2414 33.6341L35.2168 31.0164C35.002 30.8305 34.66 30.8305 34.4452 31.0164C34.2305 31.2023 34.2305 31.4983 34.4452 31.6842Z" fill="#56CCF2" stroke="#56CCF2"/>
<path d="M36.3428 29.8597C36.3428 30.1428 36.5312 30.3684 36.76 30.3684H40.0439C40.2761 30.3684 40.4611 30.1387 40.4611 29.8597C40.4611 29.5765 40.2727 29.3509 40.0439 29.3509H36.76C36.5312 29.3509 36.3428 29.5807 36.3428 29.8597Z" fill="#56CCF2" stroke="#56CCF2"/>
<path d="M35.2773 28.8422C35.4 28.8422 35.5228 28.7966 35.6149 28.7056L38.2614 26.0879C38.4494 25.902 38.4494 25.6061 38.2614 25.4202C38.0735 25.2343 37.7743 25.2343 37.5863 25.4202L34.9398 28.0379C34.7519 28.2238 34.7519 28.5197 34.9398 28.7056C35.0318 28.7966 35.1546 28.8422 35.2773 28.8422Z" fill="#56CCF2" stroke="#56CCF2"/>
<path d="M39.9467 36.9824H7V37.9999H39.9467V36.9824Z" fill="#2158F5" stroke="#2158F5"/>
</svg>
