<svg width="48" height="48" viewBox="0 0 48 48" fill="none" xmlns="http://www.w3.org/2000/svg">
<circle cx="24" cy="24" r="24" fill="#F6F9FC"/>
<path d="M33.6578 20.9967C33.6701 21.5805 33.3529 22.189 32.7547 22.4631C31.9806 22.818 31.06 22.4821 30.709 21.7167C30.6771 21.6472 30.6292 21.5428 30.6325 21.4571L22.1674 22.6847C22.1674 22.6847 24.1183 32.2317 33.4692 30.8928C42.769 29.5352 42.0878 19.7852 42.0878 19.7852L33.6578 20.9967Z" stroke="#3145FF" stroke-width="2" stroke-miterlimit="10" stroke-linecap="round" stroke-linejoin="round"/>
<path d="M23.9147 21.2483C23.5696 22.0533 22.7645 22.6857 21.7868 22.6857C20.5216 22.6857 19.4864 21.6508 19.4864 20.3859C19.4864 20.2709 19.4864 20.0984 19.5439 19.9834L7.35178 16.3613C7.35178 16.3613 4.0737 30.62 17.5311 34.6446C30.9309 38.6117 36.0493 24.8705 36.0493 24.8705L23.9147 21.2483Z" stroke="#3145FF" stroke-width="2" stroke-miterlimit="10" stroke-linecap="round" stroke-linejoin="round"/>
<path d="M23.9147 21.2483C23.5696 22.0532 22.7645 22.6857 21.7868 22.6857C20.5216 22.6857 19.4864 21.6508 19.4864 20.3859C19.4864 20.2709 19.4864 20.0984 19.5439 19.9834L7.35178 16.3613C7.35178 16.3613 4.0737 30.62 17.5311 34.6446C30.9309 38.6117 36.0493 24.8705 36.0493 24.8705L23.9147 21.2483Z" fill="white" stroke="#3145FF" stroke-width="2" stroke-miterlimit="10" stroke-linecap="round" stroke-linejoin="round"/>
<path d="M10.6296 20.6158C10.6296 20.6158 9.36437 28.8951 18.336 31.5973C27.3075 34.2996 30.9307 26.7103 30.9307 26.7103" stroke="#56CCF2" stroke-width="2.6" stroke-miterlimit="10" stroke-linecap="square" stroke-linejoin="round"/>
<path d="M14.1885 24.4105L17.5308 23.2606" stroke="#56CCF2" stroke-width="2.6" stroke-miterlimit="10" stroke-linecap="square" stroke-linejoin="round"/>
<path d="M25.6907 28.1476L23.6846 25.2153" stroke="#56CCF2" stroke-width="2.6" stroke-miterlimit="10" stroke-linecap="square" stroke-linejoin="round"/>
<path d="M19.0771 28.435L20.2341 25.1003" stroke="#56CCF2" stroke-width="2.6" stroke-miterlimit="10" stroke-linecap="square" stroke-linejoin="round"/>
</svg>
