<svg width="48" height="48" viewBox="0 0 48 48" fill="none" xmlns="http://www.w3.org/2000/svg">
<circle cx="24" cy="24" r="24" fill="#F6F9FC"/>
<path d="M17.3509 20.1844L14.3604 23.2964C12.7106 25.0132 14.0015 29.1418 17.2412 32.5184C20.486 35.895 24.4534 37.2383 26.1032 35.5163L29.0937 32.4043" stroke="#3145FF" stroke-width="2" stroke-miterlimit="10" stroke-linecap="round" stroke-linejoin="round"/>
<path d="M17.2665 20.2727C15.6167 21.9895 16.9076 26.1182 20.1523 29.4947C23.3971 32.8713 27.3645 34.2146 29.0143 32.4978C30.664 30.781 29.3731 26.6524 26.1334 23.2759C22.8887 19.8993 18.9212 18.5559 17.2665 20.2727Z" stroke="#3145FF" stroke-width="2" stroke-miterlimit="10" stroke-linecap="round" stroke-linejoin="round"/>
<path d="M35.8773 17.8039L38.3943 20.4232C39.7849 21.8703 38.6983 25.3454 35.967 28.1877C34.5864 29.6244 33.0512 30.6255 31.6855 31.0767" stroke="#3145FF" stroke-width="2" stroke-miterlimit="10" stroke-linecap="round" stroke-linejoin="round"/>
<path d="M27.2539 21.8807C27.6178 21.3776 28.0314 20.8849 28.4899 20.4025C31.2213 17.5602 34.5607 16.4295 35.9513 17.8766C37.3419 19.3237 36.2553 22.7988 33.524 25.6411C32.7664 26.4295 31.9639 27.083 31.1714 27.5861" stroke="#3145FF" stroke-width="2" stroke-miterlimit="10" stroke-linecap="round" stroke-linejoin="round"/>
<path d="M28.6056 14.2043V16.4709C28.6056 17.7209 26.6917 18.7375 24.3292 18.7375C21.9667 18.7375 20.0527 17.7209 20.0527 16.4709V14.2043" stroke="#3145FF" stroke-width="2" stroke-miterlimit="10" stroke-linecap="round" stroke-linejoin="round"/>
<path d="M28.6056 14.2666C28.6056 15.5166 26.6917 16.5332 24.3292 16.5332C21.9667 16.5332 20.0527 15.5166 20.0527 14.2666C20.0527 13.0166 21.9667 12 24.3292 12C26.6917 12.0052 28.6056 13.0166 28.6056 14.2666Z" stroke="#3145FF" stroke-width="2" stroke-miterlimit="10" stroke-linecap="round" stroke-linejoin="round"/>
<path d="M22.7988 14.2719C22.7988 14.0022 23.4817 13.7896 24.329 13.7896C25.1763 13.7896 25.8591 14.0074 25.8591 14.2719" stroke="#56CCF2" stroke-width="2" stroke-miterlimit="10" stroke-linecap="round" stroke-linejoin="round"/>
<path d="M22.914 23.7014C22.914 23.7014 20.1976 24.2719 21.1945 25.6516C22.1763 27.0105 24.0504 25.3144 25.122 26.1547C26.2584 27.052 25.0921 28.1308 23.3875 28.6806" stroke="#56CCF2" stroke-width="2" stroke-miterlimit="10" stroke-linecap="round" stroke-linejoin="round"/>
<path d="M20.4512 23.4418L21.2287 24.2354" stroke="#56CCF2" stroke-width="2" stroke-miterlimit="10" stroke-linecap="round" stroke-linejoin="round"/>
<path d="M24.8975 27.97L25.8295 28.9243" stroke="#56CCF2" stroke-width="2" stroke-miterlimit="10" stroke-linecap="round" stroke-linejoin="round"/>
<path d="M17.0721 24.8321L13 29.0696" stroke="#3145FF" stroke-width="2" stroke-miterlimit="10" stroke-linecap="round" stroke-linejoin="round"/>
<path d="M17.1614 28.4781L14.1709 31.5902" stroke="#3145FF" stroke-width="2" stroke-miterlimit="10" stroke-linecap="round" stroke-linejoin="round"/>
<path d="M20.1022 29.4428L16.2793 33.4158" stroke="#3145FF" stroke-width="2" stroke-miterlimit="10" stroke-linecap="round" stroke-linejoin="round"/>
<path d="M20.4319 32.9647L17.4414 36.0767" stroke="#3145FF" stroke-width="2" stroke-miterlimit="10" stroke-linecap="round" stroke-linejoin="round"/>
<path d="M23.3714 33.9398L20.4307 37" stroke="#3145FF" stroke-width="2" stroke-miterlimit="10" stroke-linecap="round" stroke-linejoin="round"/>
</svg>
