<svg width="48" height="48" viewBox="0 0 48 48" fill="none" xmlns="http://www.w3.org/2000/svg">
<circle cx="24" cy="24" r="24" fill="#F6F9FC"/>
<path d="M26.5939 24.3216C26.4339 25.6096 25.3339 26.612 24.0042 26.612C22.5631 26.612 21.3936 25.4425 21.3936 24.0013C21.3936 22.6577 22.403 21.5578 23.7048 21.4116" stroke="#2158F5" stroke-width="2" stroke-miterlimit="10" stroke-linecap="round" stroke-linejoin="round"/>
<path d="M14.8076 14.8076L14.1005 14.1005L14.8076 14.8076C19.8844 9.7308 28.1156 9.73079 33.1924 14.8076C38.2692 19.8844 38.2692 28.1156 33.1924 33.1924C28.1156 38.2693 19.8844 38.2692 14.8076 33.1924C9.73079 28.1156 9.73079 19.8845 14.8076 14.8076Z" stroke="#2158F5" stroke-width="2" stroke-miterlimit="10" stroke-linecap="round" stroke-linejoin="round"/>
<path d="M24.0039 24.0013L30.5967 17.4084" stroke="#56CCF2" stroke-width="2" stroke-miterlimit="10" stroke-linecap="round" stroke-linejoin="round"/>
<path d="M35.4635 24.0011H33.4307" stroke="#56CCF2" stroke-width="2" stroke-miterlimit="10" stroke-linecap="round" stroke-linejoin="round"/>
<path d="M14.5778 24.0011H12.5449" stroke="#56CCF2" stroke-width="2" stroke-miterlimit="10" stroke-linecap="round" stroke-linejoin="round"/>
<path d="M22.4238 31.8193V33.8522" stroke="#56CCF2" stroke-width="2" stroke-miterlimit="10" stroke-linecap="round" stroke-linejoin="round"/>
<path d="M25.208 31.8193V33.8522" stroke="#56CCF2" stroke-width="2" stroke-miterlimit="10" stroke-linecap="round" stroke-linejoin="round"/>
<path d="M27.9932 31.8193V33.8522" stroke="#56CCF2" stroke-width="2" stroke-miterlimit="10" stroke-linecap="round" stroke-linejoin="round"/>
<path d="M24.0039 12.5422V14.575" stroke="#56CCF2" stroke-width="2" stroke-miterlimit="10" stroke-linecap="round" stroke-linejoin="round"/>
<path d="M19.6387 31.8193V33.8522" stroke="#56CCF2" stroke-width="2" stroke-miterlimit="10" stroke-linecap="round" stroke-linejoin="round"/>
</svg>
