<svg width="48" height="48" viewBox="0 0 48 48" fill="none" xmlns="http://www.w3.org/2000/svg">
<circle cx="24" cy="24" r="24" fill="#F6F9FC"/>
<path d="M23.4773 28.2613L20.2308 30.7516L20.1543 27.8845" stroke="#56CCF2" stroke-width="2" stroke-miterlimit="10" stroke-linecap="round" stroke-linejoin="round"/>
<path d="M23.4727 28.2613L26.7191 30.7516L26.7956 27.8845" stroke="#56CCF2" stroke-width="2" stroke-miterlimit="10" stroke-linecap="round" stroke-linejoin="round"/>
<path d="M22.0654 29.4985C22.0654 29.4985 22.1826 31.4031 23.4721 31.4031" stroke="#56CCF2" stroke-width="2" stroke-miterlimit="10" stroke-linecap="round" stroke-linejoin="round"/>
<path d="M23.4313 31.4083C23.4313 31.4083 22.5496 32.106 22.4222 32.982C22.2947 33.8578 22.0654 36.7047 22.0654 36.7047" stroke="#56CCF2" stroke-width="2" stroke-miterlimit="10" stroke-linecap="round" stroke-linejoin="round"/>
<path d="M24.8793 29.4985C24.8793 29.4985 24.7621 31.4031 23.4727 31.4031" stroke="#56CCF2" stroke-width="2" stroke-miterlimit="10" stroke-linecap="round" stroke-linejoin="round"/>
<path d="M23.5127 31.4083C23.5127 31.4083 24.3944 32.106 24.5218 32.982C24.6492 33.8578 24.8786 36.7047 24.8786 36.7047" stroke="#56CCF2" stroke-width="2" stroke-miterlimit="10" stroke-linecap="round" stroke-linejoin="round"/>
<path d="M27.7785 26.8708C29.4144 27.9453 32.2736 28.5361 33.0177 30.512C33.4152 31.5712 33.7924 33.0431 33.986 34.306C34.0013 34.3519 34.0064 34.4028 34.0064 34.4537C34.0064 34.4639 34.0013 34.4741 34.0013 34.4843C34.0013 34.4944 34.0064 34.5046 34.0064 34.5148C33.9962 35.8338 29.7712 36.8829 24.3587 36.9796C23.9815 36.9949 23.5942 37 23.1915 36.9949L23.7624 37C23.3598 36.9949 22.9724 36.9848 22.5953 36.9643C17.1827 36.781 12.9781 35.6657 12.9883 34.3468C12.9883 34.3365 12.9883 34.3263 12.9934 34.3162C12.9934 34.306 12.9883 34.2958 12.9883 34.2856C12.9883 34.2347 12.9985 34.1889 13.0138 34.1379C13.2227 32.875 13.6253 31.4134 14.0433 30.3592C14.7874 28.4648 17.4936 27.8893 19.1653 26.9064" stroke="#2158F5" stroke-width="2" stroke-miterlimit="10" stroke-linecap="round" stroke-linejoin="round"/>
<path d="M28.8032 19.2065C28.793 16.2986 26.418 13.9204 23.5028 13.9H23.4926C20.5774 13.9204 18.2075 16.2936 18.1922 19.2014C18.1005 19.288 18.024 19.3848 17.9578 19.5019C17.5399 20.2251 17.7335 21.4422 18.1463 22.1552C18.4522 22.6848 18.8344 22.9038 19.1402 22.9853C19.8027 24.4774 21.2349 26.9371 23.4977 26.9473C25.7657 26.9371 27.1978 24.4825 27.8604 22.9904C28.8338 22.7459 29.2772 21.4574 29.2772 20.5204C29.2772 19.8991 29.0835 19.4663 28.8032 19.2065V19.2065Z" stroke="#2158F5" stroke-width="2" stroke-miterlimit="10" stroke-linecap="round" stroke-linejoin="round"/>
<path d="M11.6226 32.8956C9.27305 32.6461 7.01019 32.0299 7 30.5021V30.4461C7 30.3646 7.01019 30.2832 7.03058 30.2016C7.18857 29.2289 7.48417 28.1137 7.81035 27.2683C8.1773 26.3211 8.89591 25.6692 9.76742 25.1854L13.3248 23.1688" stroke="#2158F5" stroke-width="2" stroke-miterlimit="10" stroke-linecap="round" stroke-linejoin="round"/>
<path d="M18.0596 14.5875C17.392 14.1597 16.5969 13.9051 15.7458 13.9H15.7407C13.3708 13.9153 11.4392 15.8454 11.429 18.2084C11.3576 18.2797 11.2914 18.3612 11.2353 18.4528C10.899 19.0385 11.0518 20.0315 11.3882 20.6121C11.6379 21.0449 11.9489 21.2232 12.1986 21.2843C12.7337 22.5015 13.9008 24.4977 15.7458 24.5079C16.3981 24.5028 16.9638 24.2533 17.448 23.8816" stroke="#2158F5" stroke-width="2" stroke-miterlimit="10" stroke-linecap="round" stroke-linejoin="round"/>
<path d="M35.3778 32.8956C37.7273 32.6461 39.9902 32.0299 40.0004 30.5021V30.4461C40.0004 30.3646 39.9901 30.2832 39.9697 30.2016C39.8118 29.2289 39.5162 28.1137 39.1951 27.2683C38.8281 26.3211 38.1095 25.6692 37.238 25.1854L33.6807 23.1688" stroke="#2158F5" stroke-width="2" stroke-miterlimit="10" stroke-linecap="round" stroke-linejoin="round"/>
<path d="M28.9355 14.5875C29.6032 14.1597 30.3982 13.9051 31.2494 13.9H31.2596C33.6295 13.9153 35.5611 15.8454 35.5713 18.2135C35.6426 18.2848 35.7088 18.3663 35.7649 18.4579C36.1013 19.0436 35.9484 20.0366 35.612 20.6172C35.3623 21.05 35.0514 21.2283 34.8017 21.2894C34.2665 22.5066 33.0995 24.5028 31.2545 24.513C30.6021 24.5079 30.0364 24.2584 29.5523 23.8867" stroke="#2158F5" stroke-width="2" stroke-miterlimit="10" stroke-linecap="round" stroke-linejoin="round"/>
</svg>
