<svg width="48" height="48" viewBox="0 0 48 48" fill="none" xmlns="http://www.w3.org/2000/svg">
    <circle cx="24" cy="24" r="24" fill="#F6F9FC"/>
    <path d="M20.1025 9L22.3053 14.6872" stroke="#56CCF2" stroke-width="2" stroke-linecap="round"/>
    <path d="M16.7179 14.2248C16.7179 15.3006 15.8103 16.224 14.6265 16.224C13.4428 16.224 12.5352 15.3006 12.5352 14.2248C12.5352 13.149 13.4428 12.2256 14.6265 12.2256C15.8103 12.2256 16.7179 13.149 16.7179 14.2248Z" stroke="#3145FF" stroke-width="2"/>
    <path d="M31.1158 16.962L28.9131 20.3743H35.5213" stroke="#56CCF2" stroke-width="2" stroke-linecap="round" stroke-linejoin="round"/>
    <path d="M25.1271 23.7867L28.9131 26.8199L28.2247 28.3365L24.0946 27.7298L23.4062 26.2133" stroke="#56CCF2" stroke-width="2" stroke-linecap="round" stroke-linejoin="round"/>
    <path d="M37.1737 27.1989H31.8871L30.5654 29.4737H37.1737" stroke="#56CCF2" stroke-width="2" stroke-linecap="round" stroke-linejoin="round"/>
    <path d="M37.1739 13.2655C35.7791 13.1154 30.6808 13.1417 28.5188 14.5822C26.3568 16.0227 25.4675 18.0634 25.2932 18.9037C24.8573 19.0237 23.9855 19.0477 23.9855 18.1834C23.8983 17.8833 23.5845 17.2831 23.0266 17.2831C22.4686 17.2831 21.2249 17.2831 20.6728 17.2831C20.295 17.2531 19.522 17.3912 19.4523 18.1834C19.3651 19.1738 19.2779 20.0741 19.8882 20.5243C20.3764 20.8844 22.9394 20.8544 24.1599 20.7944C23.8112 21.6047 21.8061 23.1352 21.4574 24.3056C21.1086 25.476 21.1086 29.4374 21.4574 30.3378C21.8061 31.2381 22.5907 32.2284 24.1599 33.1288C25.7291 34.0291 26.5137 34.2091 28.2572 34.2091C29.6521 34.2091 36.1401 34.2092 37.9999 34.2092" stroke="#3145FF" stroke-width="2" stroke-linecap="round" stroke-linejoin="round"/>
    <path d="M22.3291 31.868V35.2893C22.3291 35.8595 22.5906 36.9999 23.6368 36.9999C24.6829 36.9999 26.3974 36.9999 27.1239 36.9999C27.5598 36.9098 28.4316 36.4777 28.4316 35.4693C28.4316 34.461 28.4316 34.3889 28.4316 34.479" stroke="#3145FF" stroke-width="2" stroke-linecap="round" stroke-linejoin="round"/>
    <path d="M14.627 18.6299L17.0421 19.6609L19.264 18.1613" stroke="#3145FF" stroke-width="2" stroke-linecap="round" stroke-linejoin="round"/>
    <path d="M13.0801 20.7855C14.2071 21.2854 16.6352 22.2851 17.3307 22.2851C18.0263 22.2851 20.1967 20.9105 21.195 20.2231" stroke="#3145FF" stroke-width="2" stroke-linecap="round" stroke-linejoin="round"/>
    <path d="M15.1098 21.7228L14.4336 25.2843" stroke="#3145FF" stroke-width="2" stroke-linecap="round" stroke-linejoin="round"/>
    <path d="M13.1774 25.1907C14.5943 25.6281 17.6213 26.6153 18.3941 27.0652C18.5551 27.1277 18.8771 27.4776 18.8771 28.3773C18.8771 29.2771 18.8771 33.501 18.8771 35.5005C18.8449 36.0003 18.5487 37.0001 17.6213 37.0001C16.462 37.0001 16.1722 36.2503 16.1722 35.5005C16.1722 34.9006 16.1722 30.9392 16.1722 29.0334H11.4385" stroke="#3145FF" stroke-width="2" stroke-linecap="round" stroke-linejoin="round"/>
    <path d="M12.2114 16.0056C11.7283 16.1305 10.7043 16.5679 10.4725 17.3177C10.2406 18.0675 9.4098 23.7535 9.02338 26.5028C8.89457 27.3463 9.23591 29.0334 11.6317 29.0334" stroke="#3145FF" stroke-width="2" stroke-linecap="round" stroke-linejoin="round"/>
    <path d="M11.4384 29.0333L13.6604 31.5639L9.5063 34.938C9.28088 35.1567 9.00395 35.7628 9.69951 36.4376C10.3951 37.1125 11.0198 36.7188 11.2452 36.4376L15.0128 33.6259" stroke="#3145FF" stroke-width="2" stroke-linecap="round" stroke-linejoin="round"/>
</svg>
