<svg width="48" height="48" viewBox="0 0 48 48" fill="none" xmlns="http://www.w3.org/2000/svg">
    <circle cx="24" cy="24" r="24" fill="#F6F9FC"/>
    <path d="M12.833 18.8336L18.2705 24.2711" stroke="#2158F5" stroke-width="2"/>
    <path d="M35.1875 18.632L29.75 24.0695" stroke="#2158F5" stroke-width="2"/>
    <path d="M16.8611 30.1112H8C8 21.2133 15.2132 14.0001 24.1111 14.0001C33.009 14.0001 40.2222 21.2133 40.2222 30.1112H31.3611" stroke="#2158F5" stroke-width="2"/>
    <path d="M32.1668 30.1114C32.1668 25.6624 28.5602 22.0558 24.1112 22.0558C19.6623 22.0558 16.0557 25.6624 16.0557 30.1114" stroke="#2158F5" stroke-width="2"/>
    <path d="M24.1113 14V18.4306" stroke="#2158F5" stroke-width="2"/>
    <path d="M21.8955 18.2292L26.3261 18.2292" stroke="#56CCF2" stroke-width="2"/>
    <path d="M22.7017 18.0278L21.292 29.5069" stroke="#56CCF2" stroke-width="2"/>
    <path d="M25.5209 18.0278L26.9307 29.5069" stroke="#56CCF2" stroke-width="2"/>
    <circle cx="24.1113" cy="29.7086" r="2.625" stroke="#56CCF2" stroke-width="2"/>
</svg>
